<svg xmlns="http://www.w3.org/2000/svg" viewBox="0 0 348.64 341.17"><defs><style>.cls-1{fill:#efe5a8;}.cls-2{fill:#fffcd2;}.cls-3{opacity:0.03;}.cls-4{fill:#fff5ae;}.cls-5{opacity:0.02;}</style></defs><title>5</title><g id="Calque_3" data-name="Calque 3"><path class="cls-1" d="M279.14,222.3s70.17-13.77,69.5-23.31-65.88-19.53-65.88-19.53S267.47,200.2,279.14,222.3Z"/><path class="cls-1" d="M0,202.77s35,21.11,44.94,19.43,9.54-30.47,9.54-30.47S2.8,191.11,0,202.77Z"/><circle class="cls-2" cx="162.04" cy="192.78" r="120.72"/><circle cx="182.44" cy="224.83" r="8.12"/><circle cx="72.27" cy="224.83" r="8.12"/><path d="M218.41,190.25s5.24,31.39,3.57,38.05c0,0,13.32,8.33,0,18.32l-16,58.74s54.81-17.15,72.43-80.53c0,0,10.53-34-1.32-68.57S218.41,190.25,218.41,190.25Z"/><path class="cls-3" d="M41.32,192.78s175.34-14.9,225.46,59.15V171.69L41.32,192.78"/><path class="cls-4" d="M348.64,199C46.89,173,0,202.77,0,202.77,4.42,130.06,148.94,26,148.94,26S307.73,86.22,348.64,199Z"/><path class="cls-5" d="M299.05,179.77s-43.29-7.21-58.83-5V155.91s50.5-.9,58.83,4.82Z"/><path class="cls-5" d="M265,140.92s-43.88-.84-58.93,3.62l-2.74-18.67s49.83-8.24,58.9-3.79Z"/><path class="cls-3" d="M78.09,85.25S2.52,151.43,0,202.77c0,0,15.79-14.43,145.39-14.71C145.39,188.06-19.18,176.69,78.09,85.25Z"/></g></svg>