<svg xmlns="http://www.w3.org/2000/svg" viewBox="0 0 348.64 341.17"><defs><style>.cls-1{fill:#fff;}.cls-2{opacity:0.07;}.cls-3{fill:#efb959;}.cls-4{fill:#f4c811;}.cls-5{fill:#f29d14;}.cls-6{fill:#922;}.cls-7{fill:#a02a2a;}.cls-8{opacity:0.1;}.cls-9{opacity:0.04;}</style></defs><title>7</title><g id="Calque_3" data-name="Calque 3"><path class="cls-1" d="M300.73,302.91l28.82,39.8s-133.48,97-257.74,0L103.37,305Z"/><path class="cls-2" d="M271.55,324.38C266.67,339.62,162.9,380,93.11,317.24L103.37,305l47.27-6.76Z"/><circle class="cls-3" cx="200.94" cy="197.71" r="145"/><circle cx="225.44" cy="236.21" r="9.75"/><circle cx="93.11" cy="236.21" r="9.75"/><path class="cls-4" d="M109.23,93.94s4.88-10.89-1.07-26.18c0,0-1.49,16.59-4,19.16,0,0,.93-25.94-6.9-33.73,0,0,1.49,13.65-.08,15C97,71.26,57.68-8.4,25.49-31.9-10.12-55.42-9.88-6.16,2.39,10.78c0,0-15-10.65-16.1-15.2,0,0,9.26,21.87,30,33.88,0,0-15.69-8.08-16.57-9.29,0,0,72.09,91.08,89.08,91.37Z"/><path class="cls-5" d="M122.54,63.85s6.62-10.67,2.48-27.73c0,0-3.84,17.23-6.84,19.52,0,0,4.54-27.15-2.6-36.62,0,0-.31,14.6-2.15,15.77-.55,3.22-30.89-87-61.41-117C17.91-112.72,11.4-60.84,21.94-41c0,0-14.26-13.65-14.79-18.61,0,0,6.71,24.52,26.78,40.52,0,0-15.35-11.06-16.1-12.47,0,0,63.08,107.56,80.86,110.63Z"/><path class="cls-5" d="M212.62,105.77s11.15,2.1,23.42-8.69c0,0-15.41,3.19-18.4,1.23,0,0,23.73-6.48,28.73-17.11,0,0-12,5.53-13.61,4.23-2.82.75,59-64.37,71.76-105.62,11.93-44.94-32.61-30.49-44.71-12.46,0,0,5.69-19.14,9.52-21.63,0,0-17.37,16.22-22.79,41.88,0,0,3.19-19.14,4.06-20.43,0,0-63.5,103.48-59.3,121.76Z"/><path class="cls-2" d="M24.2-20.93l7.25,36.27A25.74,25.74,0,0,1,34.91-3.47S32.44-7.46,24.2-20.93Z"/><path class="cls-6" d="M116.34,116.31s3.26-8.88-2.42-20.59c0,0-.2,13.18-2.06,15.35,0,0-.8-20.52-7.52-26.2,0,0,2,10.67.82,11.84C105.24,99.14,69,38.6,41.9,22,12,5.5,15.15,44.35,26,57c0,0-12.62-7.52-13.77-11.05,0,0,8.7,16.72,26,25,0,0-13-5.46-13.8-6.36,0,0,63.06,67.62,76.66,66.85Z"/><path class="cls-7" d="M125.19,91.79s4.66-8.81.32-22c0,0-2,13.81-4.3,15.79,0,0,2-21.68-4.26-28.73,0,0,.62,11.54-.78,12.57C115.92,72,86.29,2.57,60.11-19.27,31-41.36,28.9,0,38.51,15,38.51,15,26.3,5,25.58,1.16c0,0,6.82,19,23.82,30.39,0,0-12.92-7.82-13.61-8.89,0,0,56.84,81.15,71.23,82.53Z"/><path class="cls-6" d="M134.16,84.77s6.38-8.78,3.63-23.9c0,0-4.27,14.68-7,16.45,0,0,5.41-23.24-.36-32,0,0-1,12.66-2.72,13.54C127,61.62,105.11-19,79.86-47.22c-28.36-29-36.8,15.56-28.58,33.54,0,0-11.81-12.89-12-17.24,0,0,4.61,21.79,21.41,37.15,0,0-12.91-10.72-13.49-12,0,0,49.78,98,65.23,102Z"/><path class="cls-7" d="M139.87,82.6s8.22-6.78,9.08-22.16c0,0-7.56,13.06-10.63,14,0,0,10.65-21,7.1-31.06,0,0-4,12-5.78,12.37-1.28,2.49-3.7-81.43-21.55-115.58C97.39-95.54,78.83-54.65,82.6-35,82.6-35,74.16-50.69,75-55c0,0-.62,22.34,12,41.74,0,0-10-13.86-10.25-15.26,0,0,25.32,108.32,39.36,116.32Z"/><path class="cls-6" d="M159.38,78.62s9.61-5.54,13-21.37c0,0-9.93,12.19-13.28,12.64,0,0,14.41-19.92,12.31-31,0,0-6,11.72-8,11.8-1.72,2.36,9.05-85.32-4.09-124.07-15.85-40.93-41.63-1.82-40.82,19.26,0,0-6.28-17.82-4.76-22.11,0,0-4.18,23.1,5.92,45.59,0,0-8.18-16.24-8.24-17.74,0,0,9.17,117.22,22.49,128.1Z"/><path class="cls-7" d="M174.87,79.26s10-3.07,16-17c0,0-11.49,9.18-14.68,8.87,0,0,17.09-15.38,17.21-26.11,0,0-7.77,9.58-9.61,9.24-2,1.81,24.34-77.23,19.38-116-7.06-41.41-38.28-10.68-41.47,9.07,0,0-2.5-17.9-.29-21.55,0,0-8.2,20.54-3,43.58,0,0-4.56-16.83-4.34-18.24,0,0-13.38,110.76-3.05,123.73Z"/><path class="cls-6" d="M192.91,92.55s9.57-1.17,17.11-13c0,0-11.84,6.53-14.73,5.72,0,0,17.86-11.3,19.5-21.11,0,0-8.49,7.51-10.13,6.89C202.54,72.39,238,4.25,238.94-32.13c-.58-39.12-33.58-16.08-39.31,1.5,0,0,.25-16.82,2.8-19.8,0,0-10.44,17.48-9,39.46,0,0-1.79-16.18-1.38-17.44,0,0-28,99.35-20.42,112.94Z"/><path class="cls-7" d="M199.7,119.56s9,1,18.21-8.23c0,0-12.14,3.42-14.64,2,0,0,18.58-6.51,21.94-15.19,0,0-9.23,5.06-10.62,4.14-2.21.76,43.3-54.26,51.07-87.55,6.86-36.16-27.89-22.14-36.49-7.2,0,0,3.41-15.43,6.32-17.62a68.66,68.66,0,0,0-15.72,34.38S221.18,9,221.8,8c0,0-44.6,85.37-40.15,99.55Z"/><path class="cls-2" d="M48.13,39.78s29.8,40.86,35.24,44.79c0,0,0,14.52.34,18.27Z"/><path class="cls-2" d="M70.23,37.12l15.4,26.14s-.86,1.52-1.56,12Z"/><polygon class="cls-2" points="91.73 28.53 94.09 36.52 91.73 41.66 91.73 28.53"/><path class="cls-5" d="M177.46,142.73l21.48,6c.56.28,31.48-142.32-63.51-135.5-91.79,6.6-52.38,132.5-52.38,132.5l10.5-2.25C118.89,134,146.72,131.84,177.46,142.73Z"/><path class="cls-4" d="M178,152s-39.63-28.29-81.21,0c0,0-21.89-113.71,40.6-115.31S178,152,178,152Z"/><path class="cls-4" d="M203.21,120.77s-18.66.44-26.66-2.56"/><path class="cls-4" d="M203.21,91.21s-15.66,7.92-26.66,4"/><path class="cls-4" d="M199.06,58.33c.39,1.36-14,16.88-25.51,12.38"/><path class="cls-4" d="M179.42,27.11s-2.37,27-14.87,28.82"/><path class="cls-4" d="M77.54,121.54s8.24,3.33,15.88,0"/><path class="cls-4" d="M74.64,94.38c.14,1.4,18.18,7.55,25.54,3.94"/><path class="cls-4" d="M75.78,71.55s17.57,11.66,24.92,6.16"/><path class="cls-4" d="M88.67,36.5s9,24.87,17.65,24.78"/><path class="cls-4" d="M115.18,17.74s0,17,8.42,26"/><path class="cls-4" d="M150.72,14s1.16,24.53-8.44,31.68"/><g class="cls-8"><rect x="275.04" y="331.04" width="22.64" height="22.64" transform="translate(705.54 495.68) rotate(150)"/><rect x="97.44" y="333.04" width="22.64" height="22.64" transform="translate(49.34 700.57) rotate(-153)"/></g><rect class="cls-4" x="277.4" y="328.04" width="22.64" height="22.64" transform="translate(708.44 488.9) rotate(150)"/><rect class="cls-4" x="99.8" y="330.04" width="22.64" height="22.64" transform="translate(55.16 695.97) rotate(-153)"/><path class="cls-2" d="M95.38,142.79l-12.33,2.92a148,148,0,0,1-7.27-42.19c-1.14-41.82,29.77-49.38,29.77-49.38S87.41,73,95.38,142.79Z"/><path class="cls-9" d="M103.37,89.9s-3.89,40.37,0,48.37c0,0,14.56-7.33,20.23-5.33C123.6,132.94,104.48,105.19,103.37,89.9Z"/></g></svg>