<svg xmlns="http://www.w3.org/2000/svg" viewBox="0 0 348.64 341.17"><defs><style>.cls-1{fill:#d8c264;}.cls-2{fill:#ffec3e;}.cls-3{opacity:0.07;}</style></defs><title>10</title><g id="Calque_3" data-name="Calque 3"><circle class="cls-1" cx="181.23" cy="179.4" r="160.92"/><circle cx="208.43" cy="222.13" r="10.82"/><circle cx="61.56" cy="222.13" r="10.82"/><path d="M342.16,184.26l.19,246.42-42.86-85.47v85.47H255V236s4.09-52.95-14.33-63.1,98.06-27.22,98.06-27.22S339.38,139.74,342.16,184.26Z"/><path d="M29.46,430.68H9L6.44,157.61s0-146.9,168.14-152.45C323.07.26,338.77,145.68,338.77,145.68l-115.25,20.4L40.57,165,22,155.86S5.75,245.63,80.17,304.63Z"/><path class="cls-2" d="M22,155.86c.35,9.16,6.34,64.23,318.55,5.18,0,0,.72-18.07-3.66-30,1.82-1.87-290.66,55.37-310.55,4.77Z"/><path class="cls-3" d="M223.93,334.6l18.57,51.23s68,.27,71.08-11.1-15.26-69.27-16.37-70.1S246.77,328.92,223.93,334.6Z"/></g></svg>