<svg xmlns="http://www.w3.org/2000/svg" viewBox="0 0 348.64 341.17"><defs><style>.cls-1{fill:#e0b869;}.cls-2{fill:#bc1919;}.cls-3{fill:#eac632;}</style></defs><title>4</title><g id="Calque_3" data-name="Calque 3"><circle class="cls-1" cx="159.5" cy="200.7" r="135.77"/><circle cx="182.44" cy="236.75" r="9.13"/><circle cx="58.54" cy="236.75" r="9.13"/><circle class="cls-2" cx="110.46" cy="192.39" r="9.48"/><path d="M24,192.39c-3.05-2.91,15-24.25,16.62-26,18.71-19.56,45.28-28.67,71.77-30.83,29.17-2.37,59.23.39,82.18,20.2,21,18.17,32,44.86,36.09,71.84,0,0,29,11.25,0,32.94,0,0-13.66,64.12-71.16,75.91,17.4,4.25,79.66-10.62,132.65-58.05,46.1-41.28,67.2-105.76,51.18-171.66C327.1,40,242.83-1.85,149.83,3.76,87.52,7.53,14.15,29.66,3.9,100.92-.34,130.42,1,170.3,24,192.39Z"/><polygon class="cls-3" points="233.73 250.26 223.09 268.12 243.22 268.12 233.73 250.26"/><path class="cls-3" d="M104.68,136.41S92.14,47.15,133.06,5.22l9.58-.94s-37.76,34.13-30.25,131.3Z"/></g></svg>