<svg xmlns="http://www.w3.org/2000/svg" viewBox="0 0 348.64 341.17"><defs><style>.cls-1{fill:#f7debf;}.cls-2{fill:#aa9937;}.cls-3{fill:#ffe736;}.cls-4{opacity:0.1;}</style></defs><title>Ingénieur</title><g id="Calque_3" data-name="Calque 3"><circle class="cls-1" cx="180.11" cy="181.34" r="158.97"/><path class="cls-2" d="M223.14,334.42c11.3-18.93,23.52-49,21.73-67.63a3.24,3.24,0,0,1,0-1.28,3.57,3.57,0,0,1,1.73-1.7c10.07-6.26,17.56-28.08,3.58-34.45-.74-.34-8-1.9-8.18-1.44-.55-15.34-10.48-56.12-10.48-56.12l2.26-.33S339.38,150,339.63,159c1.44,50.89-3.13,71-19.67,105.61-7.75,16.2-21.1,29.81-35.64,40.83l-.17-.35C281.74,310.81,221.17,337.82,223.14,334.42Z"/><circle cx="206.97" cy="223.55" r="10.69"/><circle cx="61.89" cy="223.55" r="10.69"/><path class="cls-3" d="M337.44,138.85S316.59,11.4,173.44,6.07,16.2,143.79,16.2,143.79s90.82,20.46,94.25,21.64,182.66-7.61,182.66-7.61Z"/><path class="cls-3" d="M85.27,129.26c-3.29-176,111-121.2,111-121.2"/><path class="cls-3" d="M348.64,156.43S151.51,221.82.34,161.24l13-26.66S177.5,179,344,126.5Z"/><path class="cls-4" d="M116.11,13.19A176.1,176.1,0,0,0,85.75,27a1.44,1.44,0,0,0-.7.92,206.07,206.07,0,0,0-4,70.17,1.51,1.51,0,0,0,3-.1c1.11-20.42,7.4-53.73,33.65-82.39A1.5,1.5,0,0,0,116.11,13.19Z"/><path class="cls-4" d="M191.07,9.26s-25.58-1.88-32.52-.78S124,27.48,123.9,44.66C123.9,44.66,146.85,16.25,191.07,9.26Z"/></g></svg>