<svg xmlns="http://www.w3.org/2000/svg" viewBox="0 0 348.64 341.17"><defs><style>.cls-1{fill:#fff1b6;}.cls-2{fill:#1e1e1e;}.cls-3{fill:#fff;}.cls-4{fill:#ef8c29;}.cls-5{fill:none;stroke:#000;stroke-miterlimit:10;stroke-width:4px;}</style></defs><title>8</title><g id="Calque_3" data-name="Calque 3"><circle class="cls-1" cx="169.96" cy="180.08" r="151.37"/><circle cx="195.53" cy="220.27" r="10.18"/><circle cx="57.39" cy="220.27" r="10.18"/><path class="cls-2" d="M190.18,2.19a165.89,165.89,0,0,1,25.24,4.13c-27.11,17.51-43.14,118.53-43.71,135.15-8.42-1.11-16.77-1.8-25-2.14C147.11,123.28,162.1,24.05,190.18,2.19Z"/><path class="cls-3" d="M79,31.78A169.77,169.77,0,0,1,176.31,1.57q7,0,13.87.62c-28.08,21.86-43.07,121.09-43.46,137.14a319.16,319.16,0,0,0-33.58.4C112.71,122.52,109.07,55.15,79,31.78Z"/><path class="cls-4" d="M236.24,12.86c64.56,25,111,88.53,110.13,161.18a170.54,170.54,0,0,1-146,166.77,24,24,0,0,1-25.07-12.94c-3.48-7.12-2.3-13.6.53-18.92a27,27,0,0,1,21.88-14.12,51.45,51.45,0,0,0,6.2-.76c27.27-5.31,48.13-26.29,55.15-52.65a92,92,0,0,0-13.47-76.36,10,10,0,0,0-3.78-3.19,224.22,224.22,0,0,0-51.6-17.26C189.68,129,206.84,33.21,236.24,12.86Z"/><path class="cls-3" d="M215.42,6.32a168.89,168.89,0,0,1,20.82,6.54c-29.4,20.35-46.56,116.16-46,131.75q-9.3-1.92-18.55-3.14C172.28,124.85,188.31,23.83,215.42,6.32Z"/><path class="cls-5" d="M9.83,156.07c-.82,9.09-2.29,22.53,2.61,24,43.32-24.54,204.61-8.88,216.09,0s56.58,77.06,56.58,77.06l-51.78-15.31a26,26,0,0,0-11.57-.73c-21.93,3.54-104.29,14.53-203.17-1.52,0,3.13,6.41,36.89,25.69,38.1,0,0,3.43,14.88,10.44,22.06C63,308.22,215.56,315,236.88,297.87l48.23-40.73c1.38,1.85-45.24,19.68-60.76,18.45-52.58,2-114.18,2.42-180.07,2.09"/><path class="cls-5" d="M18.59,239.58a142.77,142.77,0,0,0-6.15-59.5"/><path class="cls-5" d="M171.89,246.54c-1.42,11.9-4,26.28,0,30.5-1.43,13.62-4,28.75,0,31.19"/><path class="cls-5" d="M90,247.14c-3.25,13.08-7.23,28.32,0,30.64-3.85,13.21-6.93,27,0,28.23"/><path class="cls-4" d="M6.2,155.26A169.78,169.78,0,0,1,46.11,61.48c30.06,31.28,30.41,71,31.16,82.37a382.91,382.91,0,0,0-64.68,16.44A4.81,4.81,0,0,1,6.2,155.26Z"/><path class="cls-3" d="M60.84,46.23c28.59,22.91,33.37,82.42,34.07,95.14-6.09.71-12,1.55-17.64,2.48-.75-11.42-1.1-51.09-31.16-82.37A171,171,0,0,1,60.84,46.23Z"/><path class="cls-2" d="M60.84,46.23A172.74,172.74,0,0,1,79,31.78c30.12,23.37,33.76,90.74,34.19,108-6.23.4-12.33,1-18.23,1.64C94.21,128.65,89.43,69.14,60.84,46.23Z"/><circle cx="285.11" cy="257.14" r="14.03"/></g></svg>