<svg xmlns="http://www.w3.org/2000/svg" viewBox="0 0 348.64 341.17"><defs><style>.cls-1{fill:#a35b2b;}.cls-2{fill:#8c4b28;}.cls-3{fill:#ffbf85;}</style></defs><title>6</title><g id="Calque_3" data-name="Calque 3"><path class="cls-1" d="M64.07,95.5A1.45,1.45,0,0,1,62,95.42c-3.7-4-16.71-18-17.67-19a7.14,7.14,0,0,1-1.94-2.94,7.21,7.21,0,0,1,0-2.66C44.65,54.9,46.78,39,48.94,23c.41-3.07,3.64-14.7,4.15-21.69A1.45,1.45,0,0,1,55.68.55Q71.4,20.92,87.12,41.29a26,26,0,0,1,2.77,4.14C91.2,48.07,93.5,68,91.12,70.23Z"/><path class="cls-1" d="M266.05,76.87c-2.75-2.06-1.37-23.07.28-25.51a18.45,18.45,0,0,1,3.2-3.35Q294.58,25.8,319.61,3.58a2.51,2.51,0,0,1,4.18,2c-.59,8.82.48,22.52.34,25.72L322,80.49a14.18,14.18,0,0,1-.56,4c-.93,2.76-22,17.4-23.53,16.27Z"/><path class="cls-2" d="M275.57,95.48s13.54-51.89,38.93-68.42"/><path class="cls-2" d="M58.27,18.83s26.46,51.9,18.67,79.73"/><path class="cls-1" d="M29.93,162.83c-12,32.11-18,60-20,75.82-1.35,10.81,5.27,13.77,5.27,13.77s111.46,87.71,165.49,87.71A152.74,152.74,0,0,0,333.43,187.39c0-42.8-17.9-85.28-48.71-115C256.16,44.8,214.65,32.52,175.33,34.86,139,37,100.51,52.37,75,78.87,52.66,102.05,41.06,133.08,29.93,162.83Z"/><path class="cls-3" d="M310,267.38a8.39,8.39,0,0,0,.1-1,14.21,14.21,0,0,0-1.74-6.1c-9.85-21.36-21-42.57-37.47-59.37s-39.05-28.84-62.55-28c-19.81.72-38.56,10.55-52.82,24.32a117.23,117.23,0,0,0-30.28,50.55c-3.86-14.39-6.37-30.46-12-44.05-7.69-18.66-22.11-36.95-42.14-39.48-17.07-2.16-33.91,8.19-43.74,22.31C20.15,197,15.94,209.33,13.2,221.69c-2.41,10.9-6.17,25-1.31,35.62,3.14,6.89,8.44,12.53,13.86,17.81,38.54,37.59,89.61,64,143.4,66.05S278.73,318.48,307.51,273A15.66,15.66,0,0,0,310,267.38Z"/><circle cx="67.11" cy="221.62" r="10.27"/><circle cx="206.5" cy="221.62" r="10.27"/><path class="cls-2" d="M10.69,254.47c-.93-2.38-1.58-5.16.07-6.64,2.09-1.89,7.92-2.51,10.62-2.51,4.33-.11,9.88.14,14,1.86,3.13,1.31,3.69,4,3.19,7.11-.69,4.3-5.41,9.78-8.66,12.33s-8.13,4.57-11.37,1A37.94,37.94,0,0,1,12,257.5C11.69,256.73,11.16,255.65,10.69,254.47Z"/></g></svg>