<svg xmlns="http://www.w3.org/2000/svg" viewBox="0 0 348.64 341.17"><defs><style>.cls-1{fill:#fff;}.cls-2{fill:#ffeb5a;}</style></defs><title>9</title><g id="Calque_3" data-name="Calque 3"><circle cx="177.4" cy="168.85" r="168.71"/><path class="cls-1" d="M97.54,317.35c-13.88-4.77-70.24-42.23-74.9-143.07,9.32-77.57,84.17-52,90.37-8.53,67.88-93.08,158.1-34.13,158.12,20.17C273.73,235.56,200.54,336,200.54,336,165.43,341.17,124.43,337.42,97.54,317.35Z"/><circle cx="208.23" cy="191.54" r="11.34"/><circle cx="54.26" cy="191.54" r="11.34"/><path class="cls-2" d="M115.06,206.83l19.26,29.5a3,3,0,0,1-.71,3.83l-18.92,16.48a3,3,0,0,1-3.84-.13l-19.46-16a3,3,0,0,1-.44-3.9l19.13-29.94A3,3,0,0,1,115.06,206.83Z"/></g></svg>