<svg xmlns="http://www.w3.org/2000/svg" viewBox="0 0 348.64 341.17"><defs><style>.cls-1{fill:#e0e0e0;}.cls-2{fill:#efbb75;}.cls-3{fill:#ffe048;}.cls-4{fill:#fff;}.cls-5{opacity:0.06;}</style></defs><title>3</title><g id="Calque_3" data-name="Calque 3"><polygon class="cls-1" points="314.4 230.48 299.91 239.71 296.38 222.2 305.39 210.21 314.4 230.48"/><circle class="cls-2" cx="173.38" cy="203.27" r="137.26"/><path class="cls-3" d="M229.69,174.75S241.06,226.46,242,236.4c0,0,10.88,7.57,0,19.4,0,0-3.38,47.39-27,78.6,0,0,75.71-16.56,94.67-108.16S229.69,174.75,229.69,174.75Z"/><circle cx="196.57" cy="239.71" r="9.23"/><circle cx="69.41" cy="239.71" r="9.23"/><path class="cls-4" d="M224.87,144A445.21,445.21,0,0,0,234.79,74c2.46-37.1,1.2-13.34,1.2-13.34,5-81.08-210.56-78-210.56,6.89S40.85,172.34,40.85,172.34c83-27,180.44,0,180.44,0,21.52,3.86,93.11,58.14,93.11,58.14s22.44-74.55-.73-120.88-75.45-51.16-94.59-51.16"/><path class="cls-5" d="M182.19,15.08s65.43,10.41,42.17,95.31C224.36,110.39,195.69,15.25,182.19,15.08Z"/><path class="cls-5" d="M45.27,166S33.59,145.84,31.7,73.58c0,0,42.91,79.2,64.37,81.09C96.07,154.67,55.05,157.51,45.27,166Z"/></g></svg>