<svg xmlns="http://www.w3.org/2000/svg" viewBox="0 0 348.64 341.17"><defs><style>.cls-1{fill:#7a8cac;}.cls-2{fill:#6e8099;}.cls-3{fill:#fffdeb;}.cls-4{fill:#c7d8ef;}</style></defs><title>Toi</title><g id="Calque_3" data-name="Calque 3"><path class="cls-1" d="M296.77,355.78c31.41-4.35,70.84-108.78,79-154.47s-36.45-48.59-36.45-48.59l-5.47,8.09,5.47,10s24.66,2.9,20.67,29S322.26,323,289.45,341.19l-3.92,14.59Z"/><path class="cls-1" d="M65.55,289.38s-23.3,28.33-19.87,33.4c.57.83-.28,20.53,6.64,24.82,33.05,20.49,138.82,53.31,235.58-.63,7.06-3.93-2.37-16.26,3-29.57,0,0-9.59-8.13-17.21-28S65.55,289.38,65.55,289.38Z"/><path class="cls-2" d="M57.22,300.14l21.31-28.48s92.65,34.08,96.58,31.91S263.73,263,263.73,263s12.83,37.83,15.65,40.72S206.43,386.51,57.22,300.14Z"/><circle class="cls-3" cx="169.62" cy="170.85" r="157.74"/><polyline class="cls-1" points="329.91 131.06 348.94 131.06 348.94 190.56 333.75 190.56"/><path class="cls-4" d="M279.38,287.79c38.68-18,58.52-79.84,56.68-127-4.91-125.94-98.61-166-176.19-158.4C81.3,10.12,26.57,53.9,14.06,135.49c-1,6.31,144.75-64.77,232-8.08C329.77,181.79,259.74,296.9,279.38,287.79Z"/><circle cx="196.27" cy="212.73" r="10.61"/><circle cx="52.32" cy="212.73" r="10.61"/><path class="cls-1" d="M6.12,148.31S347.85,18.4,270.53,296.24c-.87,3.13.54,6.67,3.42,4.77,3.3-2.17,29.43-23.32,31.7-28.2,0,0,72.37-286.9-293.24-168.35-6.28,2-9.15,29.38-11.19,35.13C.27,142.26,4.49,146.58,6.12,148.31Z"/></g></svg>