<svg id="Calque_1" data-name="Calque 1" xmlns="http://www.w3.org/2000/svg" viewBox="0 0 253.4 517.3"><defs><style>.cls-1{fill:#9b9b9b;}.cls-1,.cls-2,.cls-3,.cls-4,.cls-5,.cls-6,.cls-7,.cls-8{opacity:0.5;}.cls-2{fill:#cdcccc;}.cls-3{fill:#f9b35d;}.cls-4{fill:#e38d8e;}.cls-5{fill:#827f7f;}.cls-6{fill:#adadad;}.cls-7{fill:#6dc4c6;}.cls-8{fill:none;stroke:#adadad;stroke-linejoin:round;stroke-width:2px;}</style></defs><title>fusée1</title><polygon class="cls-1" points="59.05 403.3 66.05 423.4 117.55 423.4 124.55 403.3 59.05 403.3"/><path class="cls-2" d="M58.9,403.3S-37.3,158.6,128.1,0c0,0,154.8,123.3,68.1,403.3Z" transform="translate(-0.05)"/><polygon class="cls-1" points="130.75 403.3 137.75 423.4 189.25 423.4 196.25 403.3 130.75 403.3"/><path class="cls-3" d="M39.3,329.5S-25,318.6,11,517.3c0,0-1.6-135,39.9-138.8" transform="translate(-0.05)"/><path class="cls-3" d="M214.2,328.5s64.3-10.9,28.3,187.8c0,0,1.6-135-39.9-138.8" transform="translate(-0.05)"/><rect class="cls-3" x="122.55" y="329.4" width="10" height="187.9"/><path class="cls-4" d="M35.1,185.4s80.7,37.4,183.8,0l1.1,8.3s-90.2,42.4-185.9,0Z" transform="translate(-0.05)"/><path class="cls-5" d="M46.1,191.3a2.31,2.31,0,0,1,1.1,3c-.1.1-.1.3-.2.4-1.4,2.2-3.5-.4-3.5-.4s1.5,1.6,2.6-.1A2.26,2.26,0,0,0,46.1,191.3Z" transform="translate(-0.05)"/><path class="cls-5" d="M179.9,199a2.31,2.31,0,0,0-1.1,3c.1.1.1.3.2.4,1.4,2.2,3.5-.4,3.5-.4s-1.5,1.6-2.7-.1A2.75,2.75,0,0,1,179.9,199Z" transform="translate(-0.05)"/><path class="cls-5" d="M156.9,203.5a2.28,2.28,0,0,0-1.1,3c.1.1.1.3.2.4,1.4,2.2,3.5-.4,3.5-.4s-1.5,1.6-2.6-.1A2.56,2.56,0,0,1,156.9,203.5Z" transform="translate(-0.05)"/><path class="cls-5" d="M112.3,205.5a2.31,2.31,0,0,1,1.1,3c-.1.1-.1.2-.2.4-1.4,2.2-3.5-.4-3.5-.4s1.5,1.6,2.7-.1A2.4,2.4,0,0,0,112.3,205.5Z" transform="translate(-0.05)"/><path class="cls-5" d="M89.7,203.3a2.3,2.3,0,0,1,1.3,2.9c-.1.1-.1.3-.2.4-1.2,2.3-3.5-.1-3.5-.1s1.6,1.5,2.6-.3A2.27,2.27,0,0,0,89.7,203.3Z" transform="translate(-0.05)"/><path class="cls-5" d="M69.9,199a2.31,2.31,0,0,1,1.1,3c-.1.1-.1.2-.2.4-1.4,2.2-3.5-.4-3.5-.4s1.5,1.6,2.7-.1A2.4,2.4,0,0,0,69.9,199Z" transform="translate(-0.05)"/><path class="cls-5" d="M134.4,206.2a2.28,2.28,0,0,0-1.1,3c.1.1.1.3.2.4,1.4,2.2,3.5-.4,3.5-.4s-1.5,1.6-2.7-.1A2.4,2.4,0,0,1,134.4,206.2Z" transform="translate(-0.05)"/><path class="cls-5" d="M199.9,193.4a2.28,2.28,0,0,0-1.1,3c.1.1.1.3.2.4,1.4,2.2,3.5-.4,3.5-.4s-1.5,1.6-2.7-.1A2.41,2.41,0,0,1,199.9,193.4Z" transform="translate(-0.05)"/><path class="cls-5" d="M216.3,189.2a2.31,2.31,0,0,0-1.1,3c.1.1.1.2.2.4,1.4,2.2,3.5-.4,3.5-.4s-1.5,1.6-2.7-.1A2.4,2.4,0,0,1,216.3,189.2Z" transform="translate(-0.05)"/><circle class="cls-6" cx="127.55" cy="140.3" r="41.8"/><circle class="cls-7" cx="127.55" cy="140.3" r="34.4"/><path class="cls-3" d="M42.6,147.2c.1-.5-10.6-34.7-10.6-34.7s1.7-1.2.4-2.5a2.32,2.32,0,0,0-2.8-.4s-2,.9-1.3,2.7a1.35,1.35,0,0,0,1.7.9l11.8,37.2" transform="translate(-0.05)"/><path class="cls-6" d="M187.3,80.5,199.5,71s-14.9-39.5,3.1-54.5c0,0-11.8,39.5,31.4,94.3,0,0-16-2.3-28.3-27.3l-7.3,22.4-3-7.4,7.1-22.3L190.4,87Z" transform="translate(-0.05)"/><path class="cls-2" d="M202.6,16.5s9.7-10.5,26.2,36S242,114,234,110.8,192.6,55.5,202.6,16.5Z" transform="translate(-0.05)"/><polyline class="cls-8" points="214.95 29 243.95 53.8 214.95 40.3"/><polyline class="cls-8" points="216.95 63.3 243.95 53.8 232.25 82.8"/><line class="cls-8" x1="243.95" y1="53.8" x2="238.45" y2="94"/><ellipse class="cls-6" cx="247.01" cy="53.79" rx="2.6" ry="5" transform="translate(-3.98 84.42) rotate(-19.24)"/></svg>