<svg xmlns="http://www.w3.org/2000/svg" viewBox="0 0 348.64 341.17"><defs><style>.cls-1{fill:#ffefa1;}.cls-2{fill:#604321;}.cls-3{fill:#11112b;}.cls-4{fill:#968748;}.cls-5{fill:#a5944e;}.cls-6{fill:#232351;}.cls-7{opacity:0.1;}</style></defs><title>2</title><g id="Calque_3" data-name="Calque 3"><path class="cls-1" d="M33.79,214.9a125.41,125.41,0,0,0,250.82,0c0-69.26-56.14-106.41-125.41-106.41S33.79,145.64,33.79,214.9Z"/><path class="cls-2" d="M213.84,200.64s35.48,74,12.22,120.57c0,0,43.73-18.88,57.74-89.21s-70-31.36-70-31.36"/><path class="cls-1" d="M45.52,240.82c.55-2.62,29.73-12.83,38.26,19C83.78,259.81,37.67,278.34,45.52,240.82Z"/><path class="cls-1" d="M157.3,259.81s46.12,18.53,38.27-19c-.55-2.62-29.73-12.83-38.27,19"/><circle cx="177.71" cy="250.78" r="8.49"/><circle cx="62.49" cy="250.78" r="8.49"/><path class="cls-3" d="M41.57,161.11S65.27,33.25,82.49,23.79,220.34-50.3,294.15,84.2c0,0-58.09,146.46-36.62,124.51C227,202.21,84.77,100.84,41.57,161.11Z"/><path class="cls-4" d="M205.28,110.24c-5.38,14.53,3.06,32.18,3.06,32.18C202.45,124.66,205.28,110.24,205.28,110.24Z"/><path class="cls-4" d="M264.73,111.55a9,9,0,0,0,.8-1.26Z"/><path class="cls-4" d="M245.84,124.84c16.86-9.06,29.2-32.34,37-55.24-1.14,3.06-7.61,9-7.61,9C283.54,63,284.05,46,284.05,46c-.16,3.49-2.7,7.39-2.71,7.4-7.73,12.32-20,16.57-31.07,20.91-12.59,4.92-25,11.52-34.32,24.32-8.83,12.09-13.25,32.81-4,44.36,11.52-12.06,41.94-45.28,51.41-60.12,1.6-2.84,2.41-4.47,2.41-4.47a27.68,27.68,0,0,1-2.41,4.47c-5.49,8.6-10.53,17.48-16.43,25.72q-6.75,9.44-14.1,18.14-4.14,4.91-8.48,9.55c-2.55,2.74-7,5.85-8.74,9.25-.79,1.54,9.3,1.28,10.16,1a46.22,46.22,0,0,0,17-9.19c8.7-7.15,14.71-16.62,21.93-25.75C259.51,118.16,252.55,121.6,245.84,124.84Z"/><path class="cls-4" d="M263.38,82.86a27.68,27.68,0,0,0,2.41-4.47S265,80,263.38,82.86Z"/><path class="cls-5" d="M228.55,104.55c-12.55,16.67-6.39,43.23-6.39,43.23C219.68,122.14,228.55,104.55,228.55,104.55Z"/><path class="cls-5" d="M313.21,131.37a11.11,11.11,0,0,0,1.57-1.31S314.23,130.54,313.21,131.37Z"/><path class="cls-5" d="M267.33,140.71C294.5,136,320,110.89,338.8,84.35c-2.65,3.51-13.91,8.53-13.91,8.53C342,76,348.43,54.08,348.43,54.08c-1.4,4.48-6.35,8.5-6.35,8.5-15.2,12.79-34.16,13.16-51.47,14.12-19.69,1.11-39.62,4.47-57.28,17.21-16.68,12-30,37.16-20.55,56.14,20.53-10.86,75.19-41.3,93.71-56.65,3.24-3,5-4.8,5-4.8a35,35,0,0,1-5,4.8c-10.74,8.9-20.92,18.33-32.12,26.58q-12.81,9.45-26.26,17.69-7.58,4.64-15.33,8.86c-4.57,2.49-12,4.68-15.61,8.38-1.64,1.67,12.88,5.59,14.19,5.66a68.58,68.58,0,0,0,27.34-4.83c14.84-5.63,26.62-15.44,40-24.29C289.14,137.77,278,139.32,267.33,140.71Z"/><path class="cls-5" d="M320.88,93.4a35,35,0,0,0,5-4.8S324.12,90.37,320.88,93.4Z"/><path class="cls-6" d="M39.91,255c-13.62-5.82-89.29-96.08,23.44-150.2,129.92-62.37,278.4,67.48,236.31,154.26,0,0-11.83,20.45-31.13,17.31,0,0,8.68-14.67,15.27-44.39,0,0-159.47-96.17-250-13.49C33.79,218.51,36.43,235.28,39.91,255Z"/><path class="cls-7" d="M7.84,183.89c2.66-58,179.1-177.57,294.52,28.37C291.74,236.42,158.8,114.87,7.84,183.89Z"/><path class="cls-7" d="M41.5,212s61-57.13,189.43-5.18"/></g></svg>