<svg id="Calque_1" data-name="Calque 1" xmlns="http://www.w3.org/2000/svg" viewBox="0 0 238.2 335.22"><defs><style>.cls-1{fill:#6dc4c6;}.cls-2{fill:#f9b35c;}</style></defs><title>logo_couleur</title><path class="cls-1" d="M138.82,1.79S45.76-15.21,9.3,55.21c0,0-26.14,43.33,9.24,113.3s40.29,99.95,40.29,99.95l12.78,2.46S33.17,124.48,54.3,73.05,91.83,5.45,138.82,1.79Z" transform="translate(0 0.01)"/><path class="cls-1" d="M138.82,1.79s91.32,18.64,99,97.52c0,0,8.14,49.95-50.75,101.73s-74.59,77.77-74.59,77.77l-12.76-2.47s90.18-121.61,89.71-177.2S181.08,22.67,138.82,1.79Z" transform="translate(0 0.01)"/><rect class="cls-2" x="57.42" y="285.55" width="43" height="48" transform="translate(-239.98 328.35) rotate(-79.07)"/><path class="cls-1" d="M78.71,272.3,92.45,275S109,228.75,114,217.49s27.91-70.74,32-90.82S166.23,59.2,138.78,1.79c0,0-48.81,32.16-55.91,114.64,0,0-3.91,50.17-3.55,94s.17,29.52-.65,61.83" transform="translate(0 0.01)"/></svg>