<svg id="Calque_1" data-name="Calque 1" xmlns="http://www.w3.org/2000/svg" xmlns:xlink="http://www.w3.org/1999/xlink" viewBox="0 0 1920 1080"><defs><style>.cls-1{fill:url(#Ciel);}.cls-2{fill:#e5e1a1;}.cls-3,.cls-4{fill:#c9b577;}.cls-4{opacity:0.71;}.cls-5{fill:#f2eac0;}.cls-6{fill:#b7a46e;}</style><linearGradient id="Ciel" y1="466.5" x2="1920" y2="466.5" gradientUnits="userSpaceOnUse"><stop offset="0" stop-color="#cce0f4"/><stop offset="0.06" stop-color="#c3dcf2"/><stop offset="0.17" stop-color="#a9d2ee"/><stop offset="0.31" stop-color="#80c2e7"/><stop offset="0.46" stop-color="#47acde"/><stop offset="0.57" stop-color="#1e9cd7"/><stop offset="0.87" stop-color="#0075be"/><stop offset="0.99" stop-color="#005b97"/></linearGradient></defs><title>paysageegypte</title><rect class="cls-1" width="1920" height="933"/><polygon class="cls-2" points="1150.98 933 1720.55 135.11 1597.56 933 1150.98 933"/><polygon class="cls-3" points="1597.56 933 1720.55 135.11 1920 534.05 1920 933 1597.56 933"/><polygon class="cls-2" points="1128.5 932.5 1143.08 780.08 1300.57 706.58 1360.67 846.67 1211 933 1128.5 932.5"/><polygon class="cls-3" points="690.1 933 708.45 873.07 784.6 831.08 834.03 745.58 900.5 762.97 889.23 932.5 690.1 933"/><path class="cls-2" d="M776.39,612.92S638,512,758,355c0,0,40-30,91-32s194,32,194,32,59,92,21,178C1064,533,979.7,692.34,776.39,612.92Z"/><path class="cls-3" d="M730.45,395.5h332.79l3.68,12.25L1070,420H720.54c1.61-4.53,3-8.23,5.28-13.93C727.31,402.41,729,398.92,730.45,395.5Z"/><path class="cls-3" d="M712.34,447h362.91c0,.19,1.06,10.8,1.32,15.09.31,5.25,0,16.7,0,16.91H708.45c.24-5.83.59-11.43,1.28-17.06C710.34,456.9,711.28,452.16,712.34,447Z"/><path class="cls-3" d="M710,503h363.6c-1,4.43-2,10-3.22,14a82,82,0,0,1-6.33,16H717.43c-1.82-5.36-3.36-10.23-4.68-15.51C711.57,512.77,710.81,508.35,710,503Z"/><path class="cls-3" d="M726.73,554h322.4c-5,5.89-6.47,8.16-14.92,16.46-6,5.89-11.12,10.39-17.1,15.41-89.85-.64-180.08-.7-269.93-1.34-3.52-5.26-7.34-8.84-11.13-14.94C732.35,564.6,730,558.92,726.73,554Z"/><path class="cls-3" d="M758,355h285s-50.17-70.12-220.17-41.12C822.83,313.88,770.63,335.5,758,355Z"/><path class="cls-4" d="M770.75,608.33S838.62,581,884.46,590.76L776.35,612.94Z"/><path class="cls-3" d="M1001.6,607l-12.42-22L1347,596s62-4,65,180v85s8,50-29,32l-3.27,40-171.5,0s-5.73-82.48,98.27-64.48l5-135s-73-14-81,72l-2,57s-92-30-100,70H889.23Z"/><path class="cls-2" d="M795,405V548s-7,41.33,92,43c0,0-70-6.07-110.61,21.92-20.73,14.29-36.63,37-38.39,73.08-6,123,0,165,0,165s-92-20-109,64v18h90s-29-96,121-75c0,0-7.5-90.5,19.5-97.5s11,101,11,101-85-26-89,71h126s-8-78,116-58c0,0,50.5-301.5-30.5-280.5l-32.5-76.5s48-1,33-43-41-11-41-11l7.5-68L798.5,395Z"/><rect class="cls-2" x="823" y="295.5" width="59.5" height="100"/><polygon class="cls-3" points="882.5 295.5 906.5 295.5 908.5 395.5 882.5 395.5 882.5 295.5"/><path class="cls-3" d="M805,459.67h35.67s1,27.66-17.84,26.33S805,459.67,805,459.67Z"/><path class="cls-3" d="M864.69,459.67h47S913,487.33,888.17,486,864.69,459.67,864.69,459.67Z"/><rect class="cls-5" y="933" width="1920" height="147"/><rect class="cls-6" x="1710.05" y="279.1" width="63" height="27.75"/><rect class="cls-6" x="1735.52" y="331.63" width="63" height="27.75"/><rect class="cls-6" x="1698.02" y="395.13" width="63" height="27.75"/><rect class="cls-6" x="1782.02" y="395.13" width="63" height="27.75"/><rect class="cls-6" x="1735.52" y="570.08" width="63" height="27.75"/><rect class="cls-6" x="1825.51" y="570.08" width="63" height="27.75"/><rect class="cls-6" x="1794.02" y="717.83" width="63" height="27.75"/><rect class="cls-6" x="1729.52" y="766.58" width="63" height="27.75"/></svg>