<svg id="Calque_1" data-name="Calque 1" xmlns="http://www.w3.org/2000/svg" xmlns:xlink="http://www.w3.org/1999/xlink" viewBox="0 0 1920.5 1080"><defs><style>.cls-1{fill:url(#Ciel);}.cls-2{fill:#3f946b;}.cls-3{fill:#4bc28a;}.cls-4{fill:#4fa6db;}.cls-5{fill:#cdc2a6;}.cls-6{fill:#4185b6;}.cls-16,.cls-17,.cls-6,.cls-7,.cls-8{stroke:#fff;stroke-miterlimit:10;}.cls-7,.cls-8{fill:none;}.cls-8{stroke-width:2px;}.cls-9{fill:#faffb8;}.cls-10{fill:#bfbe7e;}.cls-11{fill:#bf956f;}.cls-12{fill:#fffdb8;}.cls-13{fill:#bfc07e;}.cls-14{fill:#a87c4f;}.cls-15{fill:#7e5d3e;}.cls-16{fill:#58d2d3;}.cls-17{fill:#2c7fc1;}.cls-18{fill:#a6abaf;}.cls-19{fill:#7b8083;}.cls-20{fill:#ced9d1;}.cls-21{fill:#a3b2ad;}.cls-22{fill:#bec3c7;}.cls-23{fill:#abb7b7;}.cls-24{fill:#95a5a5;}.cls-25{fill:#afb4b7;}.cls-26{fill:#7b8b8b;}.cls-27{fill:#9aa2a4;}.cls-28{fill:#cdbd9b;}.cls-29{fill:#d0d1d3;}.cls-30{fill:#d8d1be;}.cls-31{fill:#c0af81;}.cls-32{fill:#d7c19a;}.cls-33{fill:#b9babe;}.cls-34{fill:#e0939d;}.cls-35{fill:#f8e3aa;}.cls-36{fill:#d87981;}.cls-37{fill:#c2ad82;}.cls-38{fill:#ebacb4;}.cls-39{fill:#ea8d97;}.cls-40{fill:#a57948;}.cls-41{fill:#a15a60;}.cls-42{fill:#bfba9a;}.cls-43{fill:#fff;}.cls-44{fill:#b7a978;}.cls-45{fill:#bae1cc;}.cls-46{fill:#7db59c;}.cls-47{fill:#8b9797;}.cls-48{fill:#c0c8cb;}.cls-49{fill:#c3a67e;}.cls-50{fill:#a37b48;}.cls-51{fill:#a8a9ad;}.cls-52{fill:#8a8d7a;}.cls-53{fill:#58595b;}.cls-54{fill:#6d6e70;}.cls-55{fill:#605446;}.cls-56{fill:#899eaf;}.cls-57{fill:#5c6a75;}.cls-58{fill:#f1cacf;}.cls-59{fill:#da7d87;}.cls-60{fill:#fae3c1;}.cls-61{fill:#cfa79b;}.cls-62{fill:#a15559;}.cls-63{fill:#9a734c;}</style><linearGradient id="Ciel" y1="473.84" x2="1920.5" y2="473.84" gradientUnits="userSpaceOnUse"><stop offset="0" stop-color="#cce0f4"/><stop offset="0.06" stop-color="#c3dcf2"/><stop offset="0.17" stop-color="#a9d2ee"/><stop offset="0.31" stop-color="#80c2e7"/><stop offset="0.46" stop-color="#47acde"/><stop offset="0.57" stop-color="#1e9cd7"/><stop offset="0.87" stop-color="#0075be"/><stop offset="0.99" stop-color="#005b97"/></linearGradient></defs><title>paysageitalie</title><rect class="cls-1" width="1920.5" height="947.69"/><rect class="cls-2" x="411.5" y="252" width="136.5" height="696.2"/><rect class="cls-3" x="108.63" y="252" width="302.87" height="696.2"/><rect class="cls-4" x="0.51" y="976" width="1919.99" height="104"/><rect class="cls-5" x="0.51" y="948.2" width="1919.99" height="27.8"/><rect class="cls-6" x="167.18" y="445.5" width="30.11" height="57"/><line class="cls-7" x1="167.18" y1="462.58" x2="197.29" y2="462.58"/><line class="cls-8" x1="166.52" y1="482.33" x2="197.29" y2="482.33"/><line class="cls-7" x1="182.25" y1="445.21" x2="182.07" y2="502.5"/><rect class="cls-6" x="321.01" y="445.5" width="30.11" height="57"/><line class="cls-7" x1="321.01" y1="462.58" x2="351.12" y2="462.58"/><line class="cls-8" x1="320.34" y1="482.33" x2="351.12" y2="482.33"/><line class="cls-7" x1="336.07" y1="445.21" x2="335.9" y2="502.5"/><rect class="cls-9" y="492.57" width="193.58" height="43.25"/><rect class="cls-9" x="0.51" y="702.11" width="192.55" height="44.28"/><rect class="cls-10" x="193.06" y="492.05" width="196.67" height="43.25"/><rect class="cls-10" x="193.06" y="702.11" width="177.1" height="44.28"/><rect class="cls-11" x="0.51" y="476.61" width="181.22" height="15.45"/><rect class="cls-11" x="0.51" y="535.3" width="184.31" height="166.81"/><rect class="cls-11" x="0.51" y="746.38" width="184.31" height="152.39"/><rect class="cls-11" x="22.14" y="898.78" width="21.62" height="49.42"/><rect class="cls-11" x="130.25" y="898.78" width="11.33" height="49.42"/><rect class="cls-12" x="141.58" y="898.78" width="43.25" height="49.42"/><rect class="cls-13" x="184.83" y="898.78" width="38.1" height="49.42"/><rect class="cls-13" x="0.51" y="898.78" width="21.62" height="49.42"/><rect class="cls-14" x="184.83" y="535.3" width="204.91" height="152.39"/><rect class="cls-14" x="181.74" y="476.61" width="208" height="15.45"/><polygon class="cls-14" points="389.73 687.69 370.17 703.14 184.83 702.11 184.83 687.69 389.73 687.69"/><rect class="cls-14" x="184.83" y="746.38" width="185.34" height="152.39"/><rect class="cls-15" x="222.93" y="779.33" width="113.26" height="168.87"/><rect class="cls-13" x="336.19" y="898.78" width="33.98" height="49.42"/><rect class="cls-16" x="44.28" y="825.15" width="86.49" height="122.53"/><rect class="cls-17" x="233.74" y="825.15" width="82.37" height="122.53"/><rect class="cls-17" x="260.51" y="875.61" width="29.86" height="72.08"/><line class="cls-7" x1="253.3" y1="824.64" x2="253.3" y2="948.2"/><line class="cls-7" x1="274.92" y1="824.64" x2="274.92" y2="948.2"/><line class="cls-7" x1="297.06" y1="826.7" x2="297.06" y2="946.14"/><line class="cls-7" x1="233.22" y1="863.25" x2="316.63" y2="863.25"/><line class="cls-7" x1="233.22" y1="903.41" x2="316.63" y2="903.41"/><rect class="cls-16" x="72.08" y="875.61" width="29.86" height="72.08"/><line class="cls-7" x1="64.87" y1="824.64" x2="64.87" y2="948.2"/><line class="cls-7" x1="86.49" y1="824.64" x2="86.49" y2="948.2"/><line class="cls-7" x1="109.15" y1="824.64" x2="108.63" y2="947.17"/><line class="cls-7" x1="44.79" y1="863.25" x2="131.28" y2="863.25"/><line class="cls-7" x1="44.79" y1="903.41" x2="130.25" y2="903.41"/><rect class="cls-18" x="108.63" y="225.23" width="302.87" height="14.42"/><rect class="cls-19" x="411.5" y="225.23" width="136.5" height="14.42"/><rect class="cls-20" x="108.63" y="239.64" width="302.87" height="12.36"/><rect class="cls-21" x="411.5" y="239.64" width="136.5" height="12.36"/><rect class="cls-22" x="747.5" y="416.37" width="172" height="531.83"/><rect class="cls-23" x="919.5" y="359.74" width="296" height="56.63"/><rect class="cls-24" x="919.5" y="416.37" width="296" height="288.96"/><rect class="cls-24" x="919.5" y="759" width="296" height="189.2"/><rect class="cls-25" x="919.5" y="705.33" width="296" height="53.67"/><rect class="cls-26" x="1215.5" y="416.37" width="436.67" height="531.83"/><rect class="cls-27" x="1215.5" y="359.74" width="436.67" height="56.63"/><rect class="cls-28" x="1241.5" y="431.82" width="264.92" height="352.15"/><rect class="cls-29" x="1241.5" y="783.45" width="264.92" height="164.75"/><rect class="cls-30" x="1241.5" y="416.37" width="264.92" height="15.45"/><rect class="cls-31" x="1506.42" y="427.18" width="139.86" height="356.78"/><rect class="cls-32" x="1506.42" y="416.37" width="139.86" height="15.45"/><rect class="cls-33" x="1506.42" y="783.45" width="139.86" height="164.75"/><rect class="cls-34" x="1557.46" y="535.3" width="222.4" height="412.9"/><rect class="cls-35" x="1628.05" y="797.52" width="151.41" height="150.68"/><rect class="cls-36" x="1779.86" y="535.3" width="140.33" height="262.23"/><rect class="cls-37" x="1779.29" y="797.52" width="140.89" height="150.68"/><rect class="cls-38" x="1557.46" y="517.79" width="222.4" height="17.5"/><rect class="cls-39" x="1779.86" y="517.79" width="140.33" height="17.5"/><path class="cls-40" d="M1630.45,586.53a15.16,15.16,0,0,0-29.61,0,15.93,15.93,0,0,0-.45,3.69V629h30.51V590.22A15.93,15.93,0,0,0,1630.45,586.53Z" transform="translate(0.5)"/><path class="cls-40" d="M1717.72,586.53a15.16,15.16,0,0,0-29.61,0,15.93,15.93,0,0,0-.45,3.69V629h30.5V590.22A15.93,15.93,0,0,0,1717.72,586.53Z" transform="translate(0.5)"/><path class="cls-40" d="M1717.72,702.11a15.16,15.16,0,0,0-29.61,0,15.93,15.93,0,0,0-.45,3.69v38.78h30.5V705.8A15.93,15.93,0,0,0,1717.72,702.11Z" transform="translate(0.5)"/><path class="cls-41" d="M1627.55,774.31c.11-29.73,3.82-48.56-24.9-48.56-29.28,0-25,20.4-24.91,48.44,0,4.87,0,10.08,0,15.29V948.2h49.81V789.48C1627.55,784.27,1627.53,780.79,1627.55,774.31Z" transform="translate(0.5)"/><rect class="cls-16" x="1669.17" y="825.15" width="82.37" height="122.53"/><rect class="cls-16" x="1695.94" y="875.61" width="29.86" height="72.08"/><line class="cls-7" x1="1688.73" y1="824.64" x2="1688.73" y2="948.2"/><line class="cls-7" x1="1710.36" y1="824.64" x2="1710.36" y2="948.2"/><line class="cls-7" x1="1732.5" y1="826.7" x2="1732.5" y2="946.14"/><line class="cls-7" x1="1668.66" y1="863.25" x2="1752.06" y2="863.25"/><line class="cls-7" x1="1668.66" y1="903.41" x2="1752.06" y2="903.41"/><polygon class="cls-42" points="1752.05 836.97 1752.05 824.64 1740.38 836.97 1752.05 836.97"/><polygon class="cls-43" points="1752.05 824.64 1666.41 824.64 1659.33 836.97 1741.11 836.97 1752.05 824.64"/><rect class="cls-44" x="1659.33" y="836.97" width="9.33" height="110.71"/><rect class="cls-6" x="465.17" y="302.67" width="30.11" height="57"/><line class="cls-7" x1="465.17" y1="319.75" x2="495.28" y2="319.75"/><line class="cls-7" x1="464.5" y1="339.5" x2="495.28" y2="339.5"/><line class="cls-7" x1="480.23" y1="302.38" x2="480.05" y2="359.67"/><rect class="cls-6" x="465.17" y="445.5" width="30.11" height="57"/><line class="cls-7" x1="465.17" y1="462.58" x2="495.28" y2="462.58"/><line class="cls-7" x1="464.5" y1="482.33" x2="495.28" y2="482.33"/><line class="cls-7" x1="480.23" y1="445.21" x2="480.05" y2="502.5"/><rect class="cls-6" x="465.51" y="587.59" width="30.11" height="57"/><line class="cls-7" x1="465.51" y1="604.67" x2="495.62" y2="604.67"/><line class="cls-7" x1="464.84" y1="624.42" x2="495.62" y2="624.42"/><line class="cls-7" x1="480.57" y1="587.3" x2="480.4" y2="644.59"/><rect class="cls-6" x="465.85" y="728.69" width="30.11" height="57"/><line class="cls-7" x1="465.85" y1="745.77" x2="495.96" y2="745.77"/><line class="cls-7" x1="465.18" y1="765.52" x2="495.96" y2="765.52"/><line class="cls-7" x1="480.91" y1="728.4" x2="480.74" y2="785.69"/><rect class="cls-6" x="465.68" y="875.9" width="30.11" height="57"/><line class="cls-7" x1="465.68" y1="892.98" x2="495.78" y2="892.98"/><line class="cls-7" x1="465.01" y1="912.73" x2="495.78" y2="912.73"/><line class="cls-7" x1="480.74" y1="875.61" x2="480.56" y2="932.9"/><rect class="cls-6" x="320.67" y="302.67" width="30.11" height="57"/><line class="cls-7" x1="320.67" y1="319.75" x2="350.78" y2="319.75"/><line class="cls-7" x1="320" y1="339.5" x2="350.78" y2="339.5"/><line class="cls-7" x1="335.73" y1="302.38" x2="335.55" y2="359.67"/><rect class="cls-6" x="167.02" y="302.67" width="30.11" height="57"/><line class="cls-7" x1="167.02" y1="319.75" x2="197.13" y2="319.75"/><line class="cls-7" x1="166.35" y1="339.5" x2="197.13" y2="339.5"/><line class="cls-7" x1="182.08" y1="302.38" x2="181.91" y2="359.67"/><rect class="cls-45" x="298" y="356.75" width="75.25" height="35"/><rect class="cls-46" x="298" y="366.5" width="75.25" height="15.25"/><rect class="cls-45" x="144.11" y="356.75" width="75.25" height="35"/><rect class="cls-46" x="144.11" y="366.5" width="75.25" height="15.25"/><path class="cls-47" d="M1184.45,469a15.16,15.16,0,0,0-29.61,0,15.91,15.91,0,0,0-.45,3.68v38.79h30.51V472.72A15.91,15.91,0,0,0,1184.45,469Z" transform="translate(0.5)"/><path class="cls-47" d="M1113.74,469a15.25,15.25,0,0,0-30,3.68v38.79h30.5V472.72A15.39,15.39,0,0,0,1113.74,469Z" transform="translate(0.5)"/><path class="cls-47" d="M1045.82,469a15.16,15.16,0,0,0-29.61,0,15.91,15.91,0,0,0-.45,3.68v38.79h30.51V472.72A15.91,15.91,0,0,0,1045.82,469Z" transform="translate(0.5)"/><path class="cls-47" d="M977.89,469a15.16,15.16,0,0,0-29.61,0,15.91,15.91,0,0,0-.44,3.68v38.79h30.5V472.72A15.91,15.91,0,0,0,977.89,469Z" transform="translate(0.5)"/><path class="cls-47" d="M1184.45,620a15.17,15.17,0,0,0-29.61,0,16,16,0,0,0-.45,3.69v38.78h30.51V623.65A16,16,0,0,0,1184.45,620Z" transform="translate(0.5)"/><path class="cls-47" d="M1113.74,620a15.16,15.16,0,0,0-29.6,0,15.47,15.47,0,0,0-.45,3.69v38.78h30.5V623.65A15.47,15.47,0,0,0,1113.74,620Z" transform="translate(0.5)"/><path class="cls-47" d="M1045.82,620a15.17,15.17,0,0,0-29.61,0,16,16,0,0,0-.45,3.69v38.78h30.51V623.65A16,16,0,0,0,1045.82,620Z" transform="translate(0.5)"/><path class="cls-47" d="M977.89,620a15.17,15.17,0,0,0-29.61,0,16,16,0,0,0-.44,3.69v38.78h30.5V623.65A16,16,0,0,0,977.89,620Z" transform="translate(0.5)"/><path class="cls-47" d="M1045,840.21c-4.7-17.33-22.07-30.21-42.84-30.21S964,822.88,959.3,840.21a35.71,35.71,0,0,0-1.3,9.39v98.6h88.27V849.6A35.71,35.71,0,0,0,1045,840.21Z" transform="translate(0.5)"/><path class="cls-47" d="M1170.65,840.21c-4.7-17.33-22.07-30.21-42.83-30.21s-38.13,12.88-42.83,30.21a35.71,35.71,0,0,0-1.3,9.39v98.6H1172V849.6A35.71,35.71,0,0,0,1170.65,840.21Z" transform="translate(0.5)"/><path class="cls-47" d="M880.15,840.21c-4.7-17.33-22.07-30.21-42.83-30.21s-38.13,12.88-42.83,30.21a35.71,35.71,0,0,0-1.3,9.39v98.6h88.26V849.6A35.71,35.71,0,0,0,880.15,840.21Z" transform="translate(0.5)"/><path class="cls-47" d="M875.89,471a15.16,15.16,0,0,0-29.61,0,15.91,15.91,0,0,0-.44,3.68v38.79h30.5V474.72A15.91,15.91,0,0,0,875.89,471Z" transform="translate(0.5)"/><path class="cls-47" d="M811.89,471a15.16,15.16,0,0,0-29.61,0,15.91,15.91,0,0,0-.44,3.68v38.79h30.5V474.72A15.91,15.91,0,0,0,811.89,471Z" transform="translate(0.5)"/><path class="cls-47" d="M878.39,620a15.17,15.17,0,0,0-29.61,0,16,16,0,0,0-.44,3.69v38.78h30.5V623.65A16,16,0,0,0,878.39,620Z" transform="translate(0.5)"/><path class="cls-47" d="M811.89,620a15.17,15.17,0,0,0-29.61,0,16,16,0,0,0-.44,3.69v38.78h30.5V623.65A16,16,0,0,0,811.89,620Z" transform="translate(0.5)"/><rect class="cls-48" x="747.5" y="359.74" width="172" height="56.63"/><rect class="cls-27" x="1215.5" y="705.33" width="26" height="53.67"/><path class="cls-49" d="M1373.91,493.54a15.91,15.91,0,0,0-.45,3.68V536h10.44l.3-53.65A15.46,15.46,0,0,0,1373.91,493.54Z" transform="translate(0.5)"/><path class="cls-50" d="M1404,497.22a15.91,15.91,0,0,0-.45-3.68,15.32,15.32,0,0,0-14.81-11.89,14.94,14.94,0,0,0-4.51.71l-.3,53.65H1404Z" transform="translate(0.5)"/><path class="cls-50" d="M1306.9,478.65a14.74,14.74,0,0,0-4,.55l-.23,53.81h19.48V494.22a15.91,15.91,0,0,0-.45-3.68A15.3,15.3,0,0,0,1306.9,478.65Z" transform="translate(0.5)"/><path class="cls-49" d="M1292.1,490.54a15.39,15.39,0,0,0-.45,3.68V533h11l.23-53.81A15.42,15.42,0,0,0,1292.1,490.54Z" transform="translate(0.5)"/><path class="cls-50" d="M1404,645V606.22a15.91,15.91,0,0,0-.45-3.68,15.32,15.32,0,0,0-14.81-11.89,15,15,0,0,0-5.11.9l-.29,53.46Z" transform="translate(0.5)"/><path class="cls-49" d="M1373.91,602.54a15.91,15.91,0,0,0-.45,3.68V645h9.85l.29-53.46A15.48,15.48,0,0,0,1373.91,602.54Z" transform="translate(0.5)"/><path class="cls-49" d="M1292.1,602.54a15.39,15.39,0,0,0-.45,3.68V645h10.53l.24-53.66A15.44,15.44,0,0,0,1292.1,602.54Z" transform="translate(0.5)"/><path class="cls-50" d="M1322.15,645V606.22a15.91,15.91,0,0,0-.45-3.68,15.3,15.3,0,0,0-14.8-11.89,14.74,14.74,0,0,0-4.48.7l-.24,53.66Z" transform="translate(0.5)"/><path class="cls-50" d="M1322.15,755.65V716.87a15.93,15.93,0,0,0-.45-3.69,15.12,15.12,0,0,0-19.77-11l-.23,53.51Z" transform="translate(0.5)"/><path class="cls-49" d="M1292.1,713.18a15.41,15.41,0,0,0-.45,3.69v38.78h10l.23-53.51A15.49,15.49,0,0,0,1292.1,713.18Z" transform="translate(0.5)"/><path class="cls-49" d="M1373.91,713.18a15.93,15.93,0,0,0-.45,3.69v38.78h9.25l.29-53.21A15.51,15.51,0,0,0,1373.91,713.18Z" transform="translate(0.5)"/><path class="cls-50" d="M1404,755.65V716.87a15.93,15.93,0,0,0-.45-3.69,15.32,15.32,0,0,0-14.81-11.89,14.89,14.89,0,0,0-5.71,1.15l-.29,53.21Z" transform="translate(0.5)"/><path class="cls-51" d="M1321.45,860.84c-2.56-13.69-12-23.87-23.29-23.87s-20.74,10.18-23.29,23.87a39.79,39.79,0,0,0-.71,7.41v77.89h48V868.25A40.66,40.66,0,0,0,1321.45,860.84Z" transform="translate(0.5)"/><rect class="cls-52" x="1351.25" y="860" width="86.62" height="88.2"/><polygon class="cls-53" points="1437.88 860 1437.88 831.88 1404.5 860 1437.88 860"/><polygon class="cls-54" points="1437.88 831.88 1342.63 831.88 1313.63 860 1404.5 860 1437.88 831.88"/><rect class="cls-55" x="1448.25" y="906.25" width="4" height="41.95"/><path class="cls-56" d="M978.34,359.74V302.33h31.33v-104h178.66V299.67l70,1.33v58.74S974.35,360.48,978.34,359.74Z" transform="translate(0.5)"/><polygon class="cls-57" points="1188.83 198.33 1278.83 198.33 1278.83 305 1348.5 305 1348.5 360.07 1258.83 359.74 1258.83 301 1188.83 299.67 1188.83 198.33"/><path class="cls-57" d="M1517.67,48.33h58.18l46.48,99.34s36.67-5.34,40,22.66-26.66,28-26.66,28l-1.34,161.41h-58.48Z" transform="translate(0.5)"/><path class="cls-56" d="M1575.85,359.74V194.33s24.67,4,24.54-26c-.11-26.79-34.72-20-34.72-20l-48-100h-156l-46,100s-37.34-8.66-41.34,26.67c0,0,0,22.67,25.34,23.33L1300,305h48v55.07Z" transform="translate(0.5)"/><rect class="cls-58" x="1646.29" y="466.75" width="57.13" height="51.04"/><rect class="cls-59" x="1703.41" y="466.75" width="44.34" height="51.04"/><rect class="cls-60" x="1646.29" y="458.25" width="57.13" height="8.5"/><rect class="cls-61" x="1703.41" y="458.25" width="44.34" height="8.5"/><path class="cls-62" d="M1740.08,488.46c-.91-4.71-4.29-8.21-8.32-8.21s-7.41,3.5-8.32,8.21a13.28,13.28,0,0,0-.25,2.55v26.78h17.14V491A13.28,13.28,0,0,0,1740.08,488.46Z" transform="translate(0.5)"/><rect class="cls-16" x="1364.17" y="870.33" width="65.67" height="77.35"/><line class="cls-16" x1="1397" y1="870.33" x2="1397" y2="947.69"/><path class="cls-63" d="M1578.92,958s-5.25,33.36-67.34,33.52c-79.5.22-100-33.52-100-33.52s62.9,16.77,92.12,16C1543.42,972.88,1578.92,958,1578.92,958Z" transform="translate(0.5)"/></svg>