<svg id="Calque_1" data-name="Calque 1" xmlns="http://www.w3.org/2000/svg" xmlns:xlink="http://www.w3.org/1999/xlink" viewBox="0 0 1920 1080"><defs><style>.cls-1{fill:url(#Ciel);}.cls-2{fill:#d4471a;}.cls-3{fill:#0f5c48;}.cls-4{fill:#781301;}.cls-5{fill:#ffefe4;}.cls-6{fill:#776f7e;}.cls-7{fill:#d4451b;}.cls-8{fill:#eb642d;}.cls-9{fill:#d14719;}.cls-10{fill:#b62d09;}.cls-11{fill:#d2451a;}.cls-12{fill:#d04618;}.cls-13{fill:#b22d0e;}.cls-14{fill:#b42d0f;}.cls-15{fill:#e7662f;}.cls-16{fill:#d44519;}.cls-17{fill:#ea672f;}.cls-18{fill:#cf4517;}.cls-19{fill:#a22813;}.cls-20{fill:#31705b;}.cls-21{fill:#e81411;}.cls-22{fill:#b62a07;}.cls-23{fill:#ffa800;}.cls-24{fill:#d3491b;}.cls-25{fill:#4c2752;}.cls-26{fill:#b6290d;}.cls-27{fill:#ffab00;}.cls-28{fill:#fa0;}</style><linearGradient id="Ciel" y1="518.5" x2="1920" y2="518.5" gradientUnits="userSpaceOnUse"><stop offset="0" stop-color="#cce0f4"/><stop offset="0.06" stop-color="#c3dcf2"/><stop offset="0.17" stop-color="#a9d2ee"/><stop offset="0.31" stop-color="#80c2e7"/><stop offset="0.46" stop-color="#47acde"/><stop offset="0.57" stop-color="#1e9cd7"/><stop offset="0.87" stop-color="#0075be"/><stop offset="0.99" stop-color="#005b97"/></linearGradient></defs><title>paysagerussie</title><rect class="cls-1" width="1920" height="1037"/><rect class="cls-2" x="242" y="852" width="335" height="185"/><rect class="cls-3" x="1045" y="720" width="386" height="20"/><rect class="cls-4" x="927" y="706" width="202" height="97"/><rect class="cls-5" x="990" y="695" width="139" height="11"/><rect class="cls-4" x="927" y="598" width="202" height="97"/><rect class="cls-3" x="933" y="577" width="196" height="21"/><rect class="cls-5" x="990" y="566" width="139" height="11"/><rect class="cls-4" x="927" y="440" width="202" height="126"/><rect class="cls-6" y="1037" width="1920" height="43"/><rect class="cls-7" x="577" y="780" width="229" height="257"/><rect class="cls-8" x="806" y="755" width="70" height="282"/><rect class="cls-9" x="876" y="755" width="62" height="282"/><rect class="cls-10" x="938" y="755" width="76" height="282"/><rect class="cls-11" x="1014" y="780" width="440" height="257"/><rect class="cls-12" x="1454" y="853" width="234" height="184"/><rect class="cls-13" x="1535" y="788" width="141" height="65"/><rect class="cls-14" x="311" y="734" width="185" height="118"/><path class="cls-12" d="M1503,811s-23,24-40,0c0,0-5,26,9,26v16h21V837S1504,839,1503,811Z"/><path class="cls-12" d="M1551,811s-23,24-40,0c0,0-5,26,9,26v16h21V837S1552,839,1551,811Z"/><path class="cls-12" d="M1599,811s-23,24-40,0c0,0-5,26,9,26v16h21V837S1600,839,1599,811Z"/><path class="cls-12" d="M1645,811s-23,24-40,0c0,0-5,26,9,26v16h21V837S1646,839,1645,811Z"/><path class="cls-12" d="M1690,811s-23,24-40,0c0,0-5,26,9,26v16h21V837S1691,839,1690,811Z"/><path class="cls-12" d="M471,810s-23,24-40,0c0,0-5,26,9,26v16h21V836S472,838,471,810Z"/><path class="cls-12" d="M562,810s-23,24-40,0c0,0-5,26,9,26v16h21V836S563,838,562,810Z"/><path class="cls-12" d="M516,810s-23,24-40,0c0,0-5,26,9,26v16h21V836S517,838,516,810Z"/><path class="cls-12" d="M421,810s-23,24-40,0c0,0-5,26,9,26v16h21V836S422,838,421,810Z"/><path class="cls-12" d="M377,810s-23,24-40,0c0,0-5,26,9,26v16h21V836S378,838,377,810Z"/><path class="cls-12" d="M331,810s-23,24-40,0c0,0-5,26,9,26v16h21V836S332,838,331,810Z"/><path class="cls-12" d="M283,810s-23,24-40,0c0,0-5,26,9,26v16h21V836S284,838,283,810Z"/><rect class="cls-3" x="1045" y="755" width="386" height="25"/><rect class="cls-5" x="1055" y="740" width="363" height="15"/><rect class="cls-15" x="1264" y="610" width="48" height="110"/><rect class="cls-16" x="1312" y="610" width="46" height="110"/><rect class="cls-10" x="1358" y="610" width="50" height="110"/><rect class="cls-3" x="1254" y="591" width="160" height="19"/><rect class="cls-5" x="311" y="666" width="185" height="68"/><rect class="cls-14" x="311" y="688" width="17" height="30"/><rect class="cls-14" x="352" y="688" width="17" height="30"/><rect class="cls-14" x="395" y="688" width="17" height="30"/><rect class="cls-14" x="438" y="688" width="17" height="30"/><rect class="cls-14" x="479" y="688" width="17" height="30"/><rect class="cls-17" x="328" y="532" width="146" height="134"/><rect class="cls-18" x="346" y="501" width="110" height="31"/><rect class="cls-5" x="343" y="493" width="117" height="8"/><rect class="cls-19" x="343" y="471" width="117" height="22"/><polygon class="cls-20" points="350 471 401 248 452.33 471 350 471"/><polygon class="cls-21" points="401 234.01 407 247.66 422.54 249.66 412 260.66 414.31 274.99 401 267.66 387.69 274.99 390 260.66 379.46 249.66 395 247.66 401 234.01"/><rect class="cls-3" x="795" y="730" width="228" height="25"/><rect class="cls-5" x="812" y="713" width="197" height="17"/><rect class="cls-3" x="806" y="686" width="208" height="27"/><rect class="cls-15" x="827" y="554" width="49" height="132"/><rect class="cls-16" x="876" y="554" width="61" height="132"/><rect class="cls-22" x="937" y="554" width="61" height="132"/><rect class="cls-3" x="818" y="533" width="186" height="21"/><rect class="cls-5" x="822" y="501" width="175" height="32"/><path class="cls-16" d="M828.5,533S826,512,850,505c0,0,20.67,3,23.33,28Z"/><path class="cls-16" d="M889.5,533S887,512,911,505c0,0,20.67,3,23.33,28Z"/><path class="cls-16" d="M948.5,533S946,512,970,505c0,0,20.67,3,23.33,28Z"/><rect class="cls-15" x="822" y="471" width="51" height="30"/><rect class="cls-16" x="873" y="471" width="64" height="30"/><rect class="cls-22" x="937" y="471" width="60" height="30"/><rect class="cls-3" x="817" y="451" width="186" height="20"/><rect class="cls-5" x="1264" y="559" width="144" height="32"/><path class="cls-16" d="M1363.5,591s-2.5-21,21.5-28c0,0,20.67,3,23.33,28Z"/><path class="cls-16" d="M1312.5,591s-2.5-21,21.5-28c0,0,20.67,3,23.33,28Z"/><path class="cls-16" d="M1264.5,591s-2.5-21,21.5-28c0,0,20.67,3,23.33,28Z"/><rect class="cls-15" x="1264" y="540" width="48" height="19"/><rect class="cls-16" x="1312" y="540" width="46" height="19"/><rect class="cls-10" x="1358" y="540" width="50" height="19"/><g id="Calque_2" data-name="Calque 2"><path class="cls-3" d="M965,340l-1.56,2.56A38.85,38.85,0,0,1,970,340Z"/><path class="cls-3" d="M1084,340h-9a28.11,28.11,0,0,1,13.12,6.57Z"/><path class="cls-3" d="M1119.08,396H1082.5s-2.35-19.78,19.45-27.34l-5.13-8.2a39.9,39.9,0,0,1,1.51,7.54H1053.5s-2.5-21,21.5-28h-50s20.67,3,23.33,28H1003.5s-2.5-21,21.5-28H970s20.67,3,23.33,28H948.5s0-.31-.06-.85L915,422l12,18h202l7-17ZM975.5,427S973,406,997,399c0,0,20.67,3,23.33,28Zm0-31S973,375,997,368c0,0,20.67,3,23.33,28Zm56,31s-2.5-21,21.5-28c0,0,20.67,3,23.33,28Zm0-31s-2.5-21,21.5-28c0,0,20.67,3,23.33,28Zm53,31s-2.5-21,21.5-28c0,0,20.67,3,23.33,28Z"/><path class="cls-5" d="M997,399c-24,7-21.5,28-21.5,28h44.83C1017.67,402,997,399,997,399Z"/><path class="cls-5" d="M997,368c-24,7-21.5,28-21.5,28h44.83C1017.67,371,997,368,997,368Z"/><path class="cls-5" d="M993.33,368C990.67,343,970,340,970,340a38.85,38.85,0,0,0-6.56,2.56l-15,24.59c0,.54.06.85.06.85Z"/><path class="cls-5" d="M1003.5,368h44.83c-2.66-25-23.33-28-23.33-28C1001,347,1003.5,368,1003.5,368Z"/><path class="cls-5" d="M1088.12,346.57l8.7,13.89"/><path class="cls-5" d="M1053.5,368h44.83a39.9,39.9,0,0,0-1.51-7.54l-8.7-13.89A28.11,28.11,0,0,0,1075,340C1051,347,1053.5,368,1053.5,368Z"/><path class="cls-5" d="M1082.5,396h36.58L1102,368.66C1080.15,376.22,1082.5,396,1082.5,396Z"/><path class="cls-5" d="M1106,399c-24,7-21.5,28-21.5,28h44.83C1126.67,402,1106,399,1106,399Z"/><path class="cls-5" d="M1053,399c-24,7-21.5,28-21.5,28h44.83C1073.67,402,1053,399,1053,399Z"/><path class="cls-5" d="M1053,368c-24,7-21.5,28-21.5,28h44.83C1073.67,371,1053,368,1053,368Z"/><path class="cls-3" d="M944.86,316,809.26,422a58.61,58.61,0,0,0,8.49,18.53L958,327.63C953.4,323.35,949,319.43,944.86,316Z"/><path class="cls-3" d="M997.08,375l-97.39,76h33.18l71.58-60.32A104.62,104.62,0,0,0,997.08,375Z"/><path class="cls-3" d="M965.38,451H993c11.46-12,16-25,15.81-38.14Z"/><path class="cls-3" d="M923,299H906.2l-84.56,66.72c-8.51,13-12.53,24.79-13.74,35.13L932.47,306C926.66,301.51,923,299,923,299Z"/><path class="cls-3" d="M972.15,341.86,835.11,451h31.64l119.41-92.48C981.77,352.7,977,347.12,972.15,341.86Z"/><path class="cls-5" d="M932.47,306,807.9,400.85A57.22,57.22,0,0,0,809.26,422l135.6-106C940.17,312,935.94,308.64,932.47,306Z"/><path class="cls-5" d="M958,327.63,817.75,440.51A52.83,52.83,0,0,0,827,451h8.11l137-109.14C967.45,336.79,962.64,332,958,327.63Z"/><path class="cls-5" d="M986.16,358.52,866.75,451h32.94l97.39-76A152.33,152.33,0,0,0,986.16,358.52Z"/><path class="cls-5" d="M1004.45,390.68,932.87,451h32.51l43.43-38.14A67.44,67.44,0,0,0,1004.45,390.68Z"/><path class="cls-5" d="M896,299c-38.71,24.73-61.59,47.15-74.36,66.72L906.2,299Z"/><path class="cls-23" d="M912.62,258V240H928l-19-30-18.21,30h14.74v18c-30.34,8-4.11,21-4.11,21l-6.29,20h28.35l-6.57-20S944.29,266,912.62,258Z"/><rect class="cls-24" x="1542" y="751" width="128" height="37"/><polygon class="cls-3" points="1542 751 1558 671 1649 671 1670 751 1542 751"/><rect class="cls-24" x="1558" y="645" width="91" height="26"/><polygon class="cls-3" points="1558 645 1590 595 1615 595 1649 645 1558 645"/><path class="cls-23" d="M1605.51,558.17v-16.5h14.1l-17.42-27.5-16.69,27.5H1599v16.5c-27.82,7.33-3.77,19.25-3.77,19.25l-5.77,18.33h26l-6-18.33S1634.53,565.5,1605.51,558.17Z"/><path class="cls-5" d="M583.82,769.83,577,780h5.5A25.89,25.89,0,0,1,583.82,769.83Z"/><path class="cls-3" d="M782.67,752a25.45,25.45,0,0,1,7,2.44L785.57,748H757.31a26.1,26.1,0,0,1,12.79-24.25L767.7,720H734.85s-2.09-17.75,16.23-26L746,686H640l-4.51,6.73c5.77,1.86,18.42,8.08,20.46,27.27H617.21l-1.51,2.26c6.29,3.07,15,10.09,16.68,25.74H598.45l-7.1,10.59A33.08,33.08,0,0,1,604,752s20.67,3,23.33,28H639s-2.5-21,21.5-28c0,0,20.67,3,23.33,28h18.71S700,759,724,752c0,0,20.66,3,23.33,28h13.8S758.67,759,782.67,752ZM642,748s-2.5-21,21.5-28c0,0,20.67,3,23.33,28Zm27.12-28s-2.5-21,21.5-28c0,0,20.67,3,23.33,28Zm33.42,28S700,727,724,720c0,0,20.66,3,23.33,28Z"/><path class="cls-5" d="M604,752a33.08,33.08,0,0,0-12.65,6.59l-7.53,11.24A25.89,25.89,0,0,0,582.5,780h44.83C624.67,755,604,752,604,752Z"/><path class="cls-5" d="M660.5,752c-24,7-21.5,28-21.5,28h44.83C681.17,755,660.5,752,660.5,752Z"/><path class="cls-5" d="M724,752c-24,7-21.5,28-21.5,28h44.83C744.7,755,724,752,724,752Z"/><path class="cls-5" d="M789.69,754.44a25.45,25.45,0,0,0-7-2.44c-24,7-21.5,28-21.5,28H806Z"/><path class="cls-5" d="M615.7,722.26,598.45,748h33.93C630.71,732.35,622,725.33,615.7,722.26Z"/><path class="cls-5" d="M663.5,720c-24,7-21.5,28-21.5,28h44.83C684.17,723,663.5,720,663.5,720Z"/><path class="cls-5" d="M724,720c-24,7-21.5,28-21.5,28h44.83C744.7,723,724,720,724,720Z"/><path class="cls-5" d="M757.31,748h28.26L770.1,723.75A26.1,26.1,0,0,0,757.31,748Z"/><path class="cls-5" d="M690.62,692c-24,7-21.5,28-21.5,28H714C711.29,695,690.62,692,690.62,692Z"/><path class="cls-5" d="M734.85,720H767.7l-16.62-26C732.76,702.25,734.85,720,734.85,720Z"/><path class="cls-5" d="M635.49,692.73,617.21,720H656C653.91,700.81,641.26,694.59,635.49,692.73Z"/><rect class="cls-5" x="634" y="680.67" width="117.24" height="5.33"/><rect class="cls-14" x="641.93" y="631.33" width="99.41" height="49.33"/><path class="cls-25" d="M713,550.2l-81.48,63.7A35.13,35.13,0,0,0,636.6,625l84.25-67.82C718.1,554.63,715.43,552.28,713,550.2Z"/><path class="cls-25" d="M744.35,585.66l-58.52,45.67h19.93l43-36.24A61.83,61.83,0,0,0,744.35,585.66Z"/><path class="cls-25" d="M725.3,631.33h16.6c6.88-7.23,9.6-15,9.5-22.92Z"/><path class="cls-25" d="M699.84,540h-10.1l-50.81,40.09c-5.11,7.83-7.53,14.9-8.26,21.11l74.86-57C702,541.51,699.84,540,699.84,540Z"/><path class="cls-25" d="M729.37,565.76,647,631.33h19l71.76-55.57C735.15,572.27,732.29,568.91,729.37,565.76Z"/><path class="cls-5" d="M705.53,544.19l-74.86,57a34.49,34.49,0,0,0,.82,12.7L713,550.2C710.16,547.82,707.61,545.79,705.53,544.19Z"/><path class="cls-5" d="M720.85,557.21,636.6,625a31.27,31.27,0,0,0,5.55,6.3H647l82.34-65.57C726.54,562.71,723.66,559.84,720.85,557.21Z"/><path class="cls-5" d="M737.79,575.76,666,631.33h19.8l58.52-45.67A91.66,91.66,0,0,0,737.79,575.76Z"/><path class="cls-5" d="M748.77,595.09l-43,36.24H725.3l26.1-22.92A40.28,40.28,0,0,0,748.77,595.09Z"/><path class="cls-5" d="M683.61,540c-23.26,14.86-37,28.33-44.68,40.09L689.74,540Z"/><path class="cls-23" d="M693.43,516.49V506.17h8.82L691.36,489l-10.44,17.2h8.45v10.32c-17.4,4.59-2.36,12-2.36,12L683.4,540h16.26l-3.77-11.47S711.59,521.08,693.43,516.49Z"/><path class="cls-22" d="M1305.91,422.5l117.84,92.12a51.37,51.37,0,0,1-7.38,16.11l-121.85-98.1C1298.49,428.91,1302.35,425.51,1305.91,422.5Z"/><path class="cls-22" d="M1260.53,473.78l84.64,66.06h-28.84l-62.2-52.42A90.9,90.9,0,0,1,1260.53,473.78Z"/><path class="cls-22" d="M1288.07,539.84h-24c-10-10.46-13.89-21.74-13.74-33.15Z"/><path class="cls-22" d="M1324.91,407.75h14.6l73.48,58c7.39,11.32,10.88,21.55,11.94,30.53l-108.25-82.45C1321.72,409.93,1324.91,407.75,1324.91,407.75Z"/><path class="cls-22" d="M1282.2,445l119.08,94.84h-27.49L1270,459.47C1273.83,454.42,1278,449.57,1282.2,445Z"/><path class="cls-3" d="M1316.68,413.81l108.25,82.45a49.7,49.7,0,0,1-1.18,18.36L1305.91,422.5C1310,419.06,1313.66,416.13,1316.68,413.81Z"/><path class="cls-3" d="M1294.52,432.63l121.85,98.1a45.7,45.7,0,0,1-8,9.11h-7L1282.2,445C1286.28,440.59,1290.46,436.44,1294.52,432.63Z"/><path class="cls-3" d="M1270,459.47l103.77,80.37h-28.62l-84.64-66.06A131.79,131.79,0,0,1,1270,459.47Z"/><path class="cls-3" d="M1254.13,487.42l62.2,52.42h-28.26l-37.73-33.15A58.43,58.43,0,0,1,1254.13,487.42Z"/><path class="cls-3" d="M1348.37,407.75c33.64,21.49,53.52,41,64.62,58l-73.48-58Z"/><path class="cls-23" d="M1339.48,373.73V358.8h12.76l-15.76-24.89-15.1,24.89h12.22v14.93c-25.17,6.64-3.41,17.43-3.41,17.43L1325,407.75h23.52l-5.44-16.59S1365.76,380.37,1339.48,373.73Z"/><path class="cls-5" d="M1084.56,680l-1.77,2.56a47.65,47.65,0,0,1,7.43-2.56Z"/><path class="cls-5" d="M1219.18,680H1209a33.8,33.8,0,0,1,14.83,6.57Z"/><path class="cls-5" d="M1258.86,736h-41.38s-2.66-19.78,22-27.34l-5.81-8.2a36.66,36.66,0,0,1,1.71,7.54h-50.72s-2.82-21,24.33-28h-56.57s23.38,3,26.4,28h-50.72s-2.82-21,24.32-28h-62.21s23.38,3,26.39,28H1065.9s0-.31-.07-.85l-.57.92c3.11.53,23.19,4.88,26,27.93h-43.55l-17.87,28.4,11.76,15.6h228.51l7.92-17Zm-220.34,31s-2.83-21,24.32-28c0,0,23.37,3,26.39,28Zm57.92,0s-2.83-21,24.32-28c0,0,23.38,3,26.4,28Zm0-31s-2.83-21,24.32-28c0,0,23.38,3,26.4,28Zm63.35,31s-2.83-21,24.32-28c0,0,23.38,3,26.39,28Zm0-31s-2.83-21,24.32-28c0,0,23.38,3,26.39,28Zm60,31s-2.83-21,24.32-28c0,0,23.38,3,26.4,28Z"/><path class="cls-16" d="M1120.76,739c-27.15,7-24.32,28-24.32,28h50.72C1144.14,742,1120.76,739,1120.76,739Z"/><path class="cls-16" d="M1120.76,708c-27.15,7-24.32,28-24.32,28h50.72C1144.14,711,1120.76,708,1120.76,708Z"/><path class="cls-16" d="M1116.61,708c-3-25-26.39-28-26.39-28a47.65,47.65,0,0,0-7.43,2.56l-17,24.59c0,.54.07.85.07.85Z"/><path class="cls-16" d="M1128.11,708h50.72c-3-25-26.4-28-26.4-28C1125.29,687,1128.11,708,1128.11,708Z"/><path class="cls-16" d="M1184.67,708h50.72a36.66,36.66,0,0,0-1.71-7.54l-9.85-13.89A33.8,33.8,0,0,0,1209,680C1181.85,687,1184.67,708,1184.67,708Z"/><path class="cls-16" d="M1217.48,736h41.38l-19.37-27.34C1214.82,716.22,1217.48,736,1217.48,736Z"/><path class="cls-16" d="M1244.06,739c-27.15,7-24.32,28-24.32,28h50.72C1267.44,742,1244.06,739,1244.06,739Z"/><path class="cls-16" d="M1184.11,739c-27.15,7-24.32,28-24.32,28h50.71C1207.49,742,1184.11,739,1184.11,739Z"/><path class="cls-16" d="M1184.11,708c-27.15,7-24.32,28-24.32,28h50.71C1207.49,711,1184.11,708,1184.11,708Z"/><path class="cls-16" d="M1065.26,708.07,1047.68,736h43.55C1088.45,713,1068.37,708.6,1065.26,708.07Z"/><path class="cls-16" d="M1062.84,739c-27.15,7-24.32,28-24.32,28h50.71C1086.21,742,1062.84,739,1062.84,739Z"/><path class="cls-23" d="M1121.2,506.58l112.26,74.28a38.73,38.73,0,0,1-7,13l-116.08-79.08C1114.12,511.75,1117.8,509,1121.2,506.58Z"/><path class="cls-23" d="M1078,547.93l80.63,53.26h-27.46l-59.26-42.26A68.5,68.5,0,0,1,1078,547.93Z"/><path class="cls-23" d="M1104.2,601.19h-22.86c-9.49-8.43-13.23-17.53-13.09-26.73Z"/><path class="cls-23" d="M1139.29,494.7h13.91l70,46.74c7,9.13,10.37,17.37,11.37,24.61l-103.13-66.47C1136.26,496.45,1139.29,494.7,1139.29,494.7Z"/><path class="cls-23" d="M1098.61,524.73l113.44,76.46h-26.19L1087,536.4A161.81,161.81,0,0,1,1098.61,524.73Z"/><path class="cls-3" d="M1131.45,499.58l103.13,66.47a34.26,34.26,0,0,1-1.12,14.81L1121.2,506.58C1125.08,503.81,1128.58,501.45,1131.45,499.58Z"/><path class="cls-3" d="M1110.34,514.76l116.08,79.08a40,40,0,0,1-7.65,7.35h-6.72l-113.44-76.46C1102.5,521.17,1106.47,517.83,1110.34,514.76Z"/><path class="cls-3" d="M1087,536.4l98.86,64.79h-27.27L1078,547.93A107,107,0,0,1,1087,536.4Z"/><path class="cls-3" d="M1071.87,558.93l59.26,42.26H1104.2l-36-26.73A40.87,40.87,0,0,1,1071.87,558.93Z"/><path class="cls-3" d="M1161.65,494.7c32,17.32,51,33,61.56,46.74l-70-46.74Z"/><path class="cls-23" d="M1153.39,462.19V447.91h12.2l-15.07-23.78-14.44,23.78h11.69v14.28c-24.06,6.34-3.26,16.65-3.26,16.65l-5,15.86H1162l-5.2-15.86S1178.5,468.53,1153.39,462.19Z"/><polygon class="cls-26" points="986.16 228 1062 228 1084 340 970 340 986.16 228"/><rect class="cls-27" x="981" y="214" width="86.5" height="14"/><rect class="cls-15" x="992" y="174.5" width="66.75" height="39.5"/><path class="cls-28" d="M992,174.5s-33.57-14.83,9.67-47.83l17.58-12.42V87.13h-8.5L1022.5,70.5l10.88,16.25-8,.25v27.25s58.79,34.58,33.37,60.25Z"/></g><rect class="cls-15" x="1084.5" y="601.2" width="43.53" height="78.8"/><rect class="cls-16" x="1128.03" y="601.2" width="50.8" height="78.8"/><rect class="cls-22" x="1178.83" y="601.2" width="40.29" height="78.8"/></svg>