<svg id="Calque_1" data-name="Calque 1" xmlns="http://www.w3.org/2000/svg" xmlns:xlink="http://www.w3.org/1999/xlink" viewBox="0 0 1920 1080"><defs><style>.cls-1{fill:url(#Ciel);}.cls-2{fill:#dfdfdf;}.cls-3{fill:#4cb050;}.cls-4{fill:#e0e0e0;}.cls-5{fill:#fafafa;}.cls-6{fill:#ededed;}.cls-7{fill:#f5f5f5;}.cls-8{fill:#f9f9f9;}.cls-9{fill:#dedede;}.cls-10{fill:#cdcdcd;}.cls-11{fill:#bcbcbc;}.cls-12{fill:#bdbdbd;}.cls-13{fill:#a3a3a3;}.cls-14{fill:#f4f4f4;}</style><linearGradient id="Ciel" y1="512.5" x2="1920" y2="512.5" gradientUnits="userSpaceOnUse"><stop offset="0" stop-color="#cce0f4"/><stop offset="0.06" stop-color="#c3dcf2"/><stop offset="0.17" stop-color="#a9d2ee"/><stop offset="0.31" stop-color="#80c2e7"/><stop offset="0.46" stop-color="#47acde"/><stop offset="0.57" stop-color="#1e9cd7"/><stop offset="0.87" stop-color="#0075be"/><stop offset="0.99" stop-color="#005b97"/></linearGradient></defs><title>paysageinde</title><rect class="cls-1" width="1920" height="1025"/><polygon class="cls-2" points="458 656 458 645 608 635 608 962 458 962 458 656"/><polygon class="cls-2" points="1325 636 1462 648 1462 962 1325 962 1325 636"/><rect class="cls-2" x="608" y="635" width="172" height="328"/><rect class="cls-2" x="1138" y="636" width="187" height="326"/><rect class="cls-3" y="1025" width="1920" height="55"/><polygon class="cls-4" points="1674.33 962 1700 454 1768 454 1793 962 1674.33 962"/><rect class="cls-4" x="780" y="519" width="358" height="443"/><polygon class="cls-4" points="1536 636 1523 962 1601 962 1580 636 1536 636"/><polygon class="cls-4" points="131.68 962 157.34 453.17 225.34 453.17 250.34 962 131.68 962"/><polygon class="cls-4" points="338 636 325 962 403 962 382 636 338 636"/><rect class="cls-5" x="600" y="648" width="171" height="314"/><rect class="cls-5" x="780" y="571" width="358" height="391"/><rect class="cls-5" x="1146" y="648" width="179" height="314"/><polygon class="cls-5" points="1325 648 1462 658 1462 962 1325 962 1325 648"/><polygon class="cls-5" points="600 648 458 656 458 962 600 962 600 648"/><path class="cls-6" d="M780,508s-84-120,79-244l75-51h49l79,46s181,110,76,250Z"/><path class="cls-7" d="M983,213s54,268.47-118,295.24L780,508s-87.47-126,65.77-233.49L934,213Z"/><path class="cls-6" d="M934,213l20-10V189s-10-1-9-11,12-11,12-11V153s-5,0-5-6,6-7,6-7v-7s-9-1-10-9a5.57,5.57,0,0,0,6,2c4-1,6-11,6-11s2,10,5,10,6,0,8-2c0,0-3,9-10,10v7s6,1,6,7-6,6-6,6v14s10,2,10,10c0,7-2,10-8,12v14l18,10Z"/><rect class="cls-4" x="811" y="598" width="301" height="365"/><rect class="cls-8" x="829" y="612" width="264" height="350"/><rect class="cls-9" x="852" y="627" width="219" height="335"/><rect class="cls-10" x="104" y="962" width="1711" height="63"/><path class="cls-10" d="M961,635S852.33,695.67,852.67,738.33,852,962,852,962h219V735.25S1076,703,961,635Z"/><path class="cls-11" d="M990.93,653.61S885.5,711.5,882.5,747.5s0,214.5,0,214.5l-31-.5v-221s-7-33,109-106Z"/><path class="cls-10" d="M1173,791h115V729s5-40-56-53c0,0-59.25,14.88-60,55C1171.29,769,1173,791,1173,791Z"/><path class="cls-10" d="M1301,561H1158v75h15.5V591.31s2-13.36,14-13.36,14,13.36,14,13.36V636h16V590.79s2-13.35,14-13.35,14,13.35,14,13.35V636h17V590.79s2-13.35,14-13.35,14,13.35,14,13.35V636H1301Z"/><rect class="cls-4" x="1155" y="553" width="149" height="8"/><path class="cls-10" d="M1350.78,791H1441V734.3s3.86-39.41-44-51.3c0,0-47,7-47,53.13C1350,770.88,1350.78,791,1350.78,791Z"/><path class="cls-10" d="M1174,941h115V879.54s5-39.65-56-52.54c0,0-60,10.9-60,54.52C1173,919.19,1174,941,1174,941Z"/><path class="cls-10" d="M1350.78,945H1441V888.3s1.85-44.41-46-56.3c0,0-45,15-45,58.13C1350,924.88,1350.78,945,1350.78,945Z"/><path class="cls-10" d="M762,560H619v75h15.5V590.31s2-13.36,14-13.36,14,13.36,14,13.36V635h16V589.79s2-13.35,14-13.35,14,13.35,14,13.35V635h17V589.79s2-13.35,14-13.35,14,13.35,14,13.35V635H762Z"/><path class="cls-12" d="M1232,676s-45.75,31-45.5,115H1173l-1-57.5S1168.63,691.75,1232,676Z"/><path class="cls-13" d="M1216.93,773h26.29V752.18s.54-16.31-13.4-20.68a23.23,23.23,0,0,0-13.12,21.35C1216.7,765.61,1216.93,773,1216.93,773Z"/><path class="cls-13" d="M1384,773h26.29V752.18s.54-16.31-13.4-20.68a23.23,23.23,0,0,0-13.12,21.35C1383.74,765.61,1384,773,1384,773Z"/><path class="cls-13" d="M1384,923.33h26.29V902.51s.54-16.31-13.4-20.68a23.23,23.23,0,0,0-13.12,21.35C1383.74,915.94,1384,923.33,1384,923.33Z"/><path class="cls-13" d="M1216.93,923.33h26.29V902.51s.54-16.31-13.4-20.68a23.23,23.23,0,0,0-13.12,21.35C1216.7,915.94,1216.93,923.33,1216.93,923.33Z"/><path class="cls-12" d="M1350.78,791l-.78-61s3.34-40.67,47-47c0,0-34,3.33-35,108Z"/><path class="cls-12" d="M1395,832s-30,31.33-29.33,113h-14.89l-.78-54.87S1348.33,849,1395,832Z"/><path class="cls-12" d="M1233,827s-46.72,30-46.47,114H1173l-1-57.5S1167.75,841.92,1233,827Z"/><path class="cls-10" d="M632.5,791h115V729s5-40-56-53c0,0-59.25,14.88-60,55C630.79,769,632.5,791,632.5,791Z"/><path class="cls-10" d="M633.5,941h115V879.54s5-39.65-56-52.54c0,0-60,10.9-60,54.52C632.5,919.19,633.5,941,633.5,941Z"/><path class="cls-12" d="M691.5,676S645.75,707,646,791H632.5l-1-57.5S628.13,691.75,691.5,676Z"/><path class="cls-13" d="M676.43,773h26.29V752.18s.54-16.31-13.4-20.68a23.23,23.23,0,0,0-13.12,21.35C676.2,765.61,676.43,773,676.43,773Z"/><path class="cls-13" d="M676.43,923.33h26.29V902.51s.54-16.31-13.4-20.68a23.23,23.23,0,0,0-13.12,21.35C676.2,915.94,676.43,923.33,676.43,923.33Z"/><path class="cls-12" d="M692.5,827S645.78,857,646,941h-13.5l-1-57.5S627.25,841.92,692.5,827Z"/><path class="cls-10" d="M481.2,788.67h90.21V732s3.86-39.41-44-51.3c0,0-47,7-47,53.12C480.41,768.55,481.2,788.67,481.2,788.67Z"/><path class="cls-10" d="M481.2,942.67h90.21V886s1.86-44.41-46-56.3c0,0-45,15-45,58.12C480.41,922.55,481.2,942.67,481.2,942.67Z"/><path class="cls-13" d="M514.38,770.67h26.29V749.84s.54-16.31-13.4-20.67a23.23,23.23,0,0,0-13.11,21.34C514.16,763.28,514.38,770.67,514.38,770.67Z"/><path class="cls-13" d="M514.38,921h26.29V900.18s.54-16.31-13.4-20.68a23.23,23.23,0,0,0-13.11,21.35C514.16,913.61,514.38,921,514.38,921Z"/><path class="cls-12" d="M481.2,788.67l-.79-61s3.34-40.67,47-47c0,0-34,3.33-35,108Z"/><path class="cls-12" d="M525.41,829.67s-30,31.33-29.33,113H481.2l-.79-54.88S478.75,846.67,525.41,829.67Z"/><rect class="cls-4" x="614.96" y="553" width="149" height="8"/><rect class="cls-10" x="1670" y="769.13" width="123" height="7.75"/><rect class="cls-10" x="1683" y="586" width="99" height="7.75"/><rect class="cls-12" x="141.51" y="589.1" width="99" height="7.75"/><rect class="cls-10" x="1529.5" y="720.83" width="58.46" height="6.38"/><rect class="cls-12" x="129.28" y="769.13" width="123" height="7.75"/><rect class="cls-10" x="1523" y="834.83" width="74.4" height="6.38"/><rect class="cls-10" x="332.3" y="720.83" width="58.46" height="6.38"/><rect class="cls-10" x="325" y="834.83" width="74.4" height="6.38"/><path class="cls-6" d="M1161,553s-50.41-60.67,69-120.33c0,0,103.71,43,69.37,120.33Z"/><path class="cls-6" d="M624.13,553s-50.4-60.67,69-120.33c0,0,103.7,43,69.37,120.33Z"/><path class="cls-14" d="M1230,432.67s60,125.58-69,120.33C1161,553,1108.68,493.83,1230,432.67Z"/><path class="cls-14" d="M692.27,432.59s60,125.58-69,120.33C623.31,552.92,571,493.75,692.27,432.59Z"/><path class="cls-13" d="M1767.83,422.75h-67.75V454h10.32V436.25s1-8.75,10.19-8.62,10.19,9.5,10.19,9.5V454h8.47V436.25s1-8.75,10.19-8.62,10.19,9.5,10.19,9.5V454h8.2Z"/><rect class="cls-10" x="1696.88" y="454" width="74.63" height="3"/><rect class="cls-12" x="1696.65" y="419.75" width="74.63" height="3"/><path class="cls-6" d="M1698.76,419.75s-5.76-29.5,36-45c0,0,41.29,16.25,34.46,45Z"/><path class="cls-4" d="M154.43,418.42s-5.76-29.5,35.94-45c0,0,44.8,15.5,36.16,45Z"/><path class="cls-13" d="M224.66,418.92H156.91v31.25h10.31V432.42s1-8.75,10.19-8.63,10.19,9.5,10.19,9.5v16.88h8.47V432.42s1-8.75,10.19-8.63,10.19,9.5,10.19,9.5v16.88h8.21Z"/><rect class="cls-4" x="153.7" y="450.17" width="74.63" height="3"/><rect class="cls-12" x="153.47" y="415.92" width="74.63" height="3"/><path class="cls-13" d="M1579.47,616.07h-43.2V636h6.57V624.68a6.27,6.27,0,0,1,6.5-5.5c5.86.08,6.5,6.06,6.5,6.06V636h5.4V624.68a6.27,6.27,0,0,1,6.5-5.5c5.86.08,6.5,6.06,6.5,6.06V636h5.23Z"/><rect class="cls-10" x="1534.07" y="614.16" width="47.59" height="1.91"/><path class="cls-4" d="M1535.42,614.16s-3.67-18.81,22.93-28.7c0,0,25.39,8.54,22.46,28.7Z"/><path class="cls-13" d="M381.86,616.07H338.65V636h6.58V624.68a6.27,6.27,0,0,1,6.5-5.5c5.86.08,6.49,6.06,6.49,6.06V636h5.41V624.68a6.27,6.27,0,0,1,6.49-5.5c5.86.08,6.5,6.06,6.5,6.06V636h5.24Z"/><rect class="cls-10" x="336.46" y="614.16" width="47.59" height="1.91"/><path class="cls-4" d="M337.81,614.16s-3.68-18.81,22.92-28.7c0,0,25.4,8.54,22.47,28.7Z"/><rect class="cls-10" x="1533.46" y="636" width="47.59" height="1.91"/><rect class="cls-10" x="336.46" y="636" width="47.59" height="1.91"/><rect class="cls-11" x="776" y="508.24" width="367" height="11.13"/></svg>