<svg xmlns="http://www.w3.org/2000/svg" xmlns:xlink="http://www.w3.org/1999/xlink" viewBox="0 0 1920 1080"><defs><style>.cls-1{fill:#e5b084;}.cls-2{fill:#ffdba6;}.cls-3{fill:#e3ae82;}.cls-4{fill:#c08a5e;}.cls-5{fill:#dfaf81;}.cls-18,.cls-6{fill:none;stroke-miterlimit:10;}.cls-6{stroke:#dfaf81;}.cls-7{fill:#fcdca9;}.cls-8{fill:#f5eed2;}.cls-9{fill:#e5b285;}.cls-10{fill:#bc8b62;}.cls-11{fill:url(#Ciel);}.cls-12{fill:#6fc727;}.cls-13{fill:#6aab35;}.cls-14{fill:#b4b5b5;}.cls-15{fill:#8e9191;}.cls-16{fill:#e8b387;}.cls-17{fill:#e3b385;}.cls-18{stroke:#e3b385;}.cls-19{fill:#fbdba8;}.cls-20{fill:#ffdca6;}.cls-21{fill:#ffdaa6;}.cls-22{fill:#e7b286;}.cls-23{fill:#c18c60;}.cls-24{fill:#ffdaa9;}.cls-25{fill:#d6a175;}</style><linearGradient id="Ciel" y1="499" x2="1920" y2="499" gradientUnits="userSpaceOnUse"><stop offset="0" stop-color="#cce0f4"/><stop offset="0.06" stop-color="#c3dcf2"/><stop offset="0.17" stop-color="#a9d2ee"/><stop offset="0.31" stop-color="#80c2e7"/><stop offset="0.46" stop-color="#47acde"/><stop offset="0.57" stop-color="#1e9cd7"/><stop offset="0.87" stop-color="#0075be"/><stop offset="0.99" stop-color="#005b97"/></linearGradient></defs><title>paysagechine</title><g id="batiment2"><rect class="cls-1" x="1326.33" y="526.67" width="246" height="17"/><rect class="cls-2" x="1326.33" y="433" width="246" height="93.67"/><path class="cls-3" d="M1378.67,506A20.33,20.33,0,0,0,1399,485.67h-40.67A20.34,20.34,0,0,0,1378.67,506Z"/><path class="cls-3" d="M1454.67,476A20.33,20.33,0,0,0,1475,455.67h-40.67A20.34,20.34,0,0,0,1454.67,476Z"/><path class="cls-3" d="M1520.67,506A20.33,20.33,0,0,0,1541,485.67h-40.67A20.34,20.34,0,0,0,1520.67,506Z"/><rect class="cls-4" x="1341.33" y="543.67" width="215.67" height="48.33"/><polygon class="cls-5" points="1518 569 1518 589.33 1498.67 589.33 1498.67 569 1460.33 569 1460.33 589.33 1441 589.33 1441 569 1400.33 569 1400.33 589.33 1381 589.33 1381 569 1341.33 569 1341.33 622 1557 622 1557 569 1518 569"/><polyline class="cls-6" points="1381 569 1381 589.33 1400.33 589.33 1400.33 569"/><polyline class="cls-6" points="1441 569 1441 589.33 1460.33 589.33 1460.33 569"/><polygon class="cls-7" points="1552.83 598 1552.83 621 1525.49 621 1525.49 598 1463.33 598 1463.33 622.33 1436 622.33 1436 598 1371 598 1371 622.33 1341 622.33 1341 598 1279 598 1279 998 1620 998 1620 598 1552.83 598"/><rect class="cls-8" x="1261" y="825" width="379.33" height="32.67"/><rect class="cls-8" x="1261" y="648.93" width="379.33" height="37.59"/><rect class="cls-9" x="1279" y="686.52" width="341" height="48.48"/><path class="cls-10" d="M1331.5,780.17H1359V741.42s0-11.39-6.35-13.67a21,21,0,0,0-14.81,0s-6.34,2.28-6.34,13.67Z"/><path class="cls-10" d="M1401.83,782.63h27.5V743.88s0-11.39-6.34-13.67a21.08,21.08,0,0,0-14.81,0s-6.35,2.28-6.35,13.67Z"/><path class="cls-10" d="M1470.5,782.63H1498V743.88s0-11.39-6.35-13.67a21.09,21.09,0,0,0-14.81,0s-6.34,2.28-6.34,13.67Z"/><path class="cls-10" d="M1539.16,782.63h27.51V743.88s0-11.39-6.35-13.67a21.08,21.08,0,0,0-14.81,0s-6.35,2.28-6.35,13.67Z"/><rect class="cls-9" x="1279" y="857.67" width="341" height="53"/><path class="cls-2" d="M1544.67,433a27.66,27.66,0,0,0,27.66,27.67V405.33A27.66,27.66,0,0,0,1544.67,433Z"/><path class="cls-2" d="M1326.33,404.17v57.66a28.83,28.83,0,1,0,0-57.66Z"/><rect class="cls-11" width="1920" height="998"/></g><g id="sol"><rect class="cls-12" y="998" width="1920" height="82"/><rect class="cls-13" y="998" width="1920" height="29.57"/></g><g id="montagne"><polyline class="cls-14" points="376.62 998 417.12 801 490.61 718 553.61 547.34 757.6 485.67 803 362.5 926 337.5 997.03 206.46 1102.4 154.38 1127.33 110 1224.23 110 1489.68 404.17 1640.33 607.67 1723 998 376.62 998"/><polygon class="cls-15" points="582.11 998 675.11 703.57 599.5 569 724.6 526.67 775.6 884.17 826.6 870.07 889.25 671.67 1154.17 493.67 1208.75 405.33 1270.88 367 1261 279.5 1185.08 241.2 1206.67 224.25 1206.67 141.75 1148 110 1232 110 1287 141.75 1381 289 1581.75 367 1624 526.67 1674 567.83 1723 998 582.11 998"/><polygon class="cls-15" points="999.92 205.03 1073.56 168.44 1121.5 261.5 1118.5 324.08 1063.5 389 1083 297.33 999.92 205.03"/><polygon class="cls-15" points="803 362.71 926 337.71 942.5 426.21 834 566.96 864 426.71 803 362.71"/></g><g id="batiment6"><polyline class="cls-9" points="1061 135.5 1061 110 1115.17 110 1115.17 131 1108.25 143.75 1073.67 169 1061 135.5"/></g><g id="batiment1"><polygon class="cls-7" points="749.83 598 749.83 621 722.5 621 722.5 598 660.33 598 660.33 622.33 633 622.33 633 598 568 598 568 622.33 538 622.33 538 598 476 598 476 998 817 998 817 598 749.83 598"/><rect class="cls-8" x="453.5" y="825" width="383.83" height="32.67"/><rect class="cls-8" x="458" y="648.93" width="379.33" height="37.59"/><rect class="cls-9" x="476" y="686.52" width="341" height="48.48"/><path class="cls-10" d="M599.5,811.5H687V744.09s0-19.83-20.19-23.79c-26.33-5.17-47.12,0-47.12,0s-20.19,4-20.19,23.79Z"/><rect class="cls-9" x="470.33" y="857.67" width="346.67" height="53"/></g><g id="batiment3"><polygon class="cls-2" points="1007.96 461.83 1007.96 472.33 982.96 472.33 982.96 461.83 948.33 461.83 948.33 472.33 923.33 472.33 923.33 461.83 889.25 461.83 889.25 671.67 1039.67 671.67 1039.67 461.83 1007.96 461.83"/><rect class="cls-16" x="889.25" y="515.67" width="150.42" height="18.67"/><rect class="cls-16" x="889.25" y="618.67" width="150.42" height="18.67"/><rect class="cls-8" x="882" y="493.67" width="157.67" height="22"/><rect class="cls-8" x="882" y="596.67" width="157.67" height="22"/><polygon class="cls-17" points="1118.5 461.83 1118.5 472.33 1105 472.33 1105 461.83 1080 461.83 1080 473.17 1066.5 473.17 1066.5 461.83 1039.67 461.83 1039.67 671.67 1148 671.67 1148 461.83 1118.5 461.83"/><polyline class="cls-18" points="1066.5 461.83 1066.5 473.17 1080 473.17 1080 461.83"/><polyline class="cls-18" points="1105 461.83 1105 472.33 1118.5 472.33 1118.5 461.83"/><rect class="cls-19" x="1039.67" y="493.67" width="114.5" height="22"/><path class="cls-10" d="M1075.25,585.67h35V550.58s0-10.32-8.08-12.38a36.89,36.89,0,0,0-18.85,0s-8.07,2.06-8.07,12.38Z"/></g><g id="batiment4"><rect class="cls-20" x="1416.25" y="240.5" width="82.75" height="126.5"/><polygon class="cls-20" points="1441.75 240.5 1441.75 216.5 1464.25 192 1486.5 216.25 1486.5 240.5 1441.75 240.5"/><polygon class="cls-9" points="1464.25 192 1539.92 192 1557.25 216.25 1557.25 238.25 1580.83 238.25 1581.75 367 1499 367 1499 240.5 1486.5 240.5 1486.5 216.25 1464.25 192"/><rect class="cls-8" x="1416.33" y="255.17" width="82.67" height="12.67"/><rect class="cls-20" x="1499" y="255.17" width="81.83" height="12.67"/><rect class="cls-20" x="1499" y="317.83" width="81.83" height="12.5"/><rect class="cls-8" x="1480.35" y="317.83" width="18.65" height="12.5"/><rect class="cls-9" x="1480.36" y="330.33" width="18.64" height="12.29"/><rect class="cls-9" x="1416.33" y="267.83" width="82.67" height="11.67"/><path class="cls-10" d="M1444.12,321.67h27.09V286.58s0-10.32-6.25-12.38a22.38,22.38,0,0,0-14.59,0s-6.25,2.06-6.25,12.38Z"/></g><g id="batiment5"><rect class="cls-9" x="1298.75" y="165" width="56.75" height="78"/><rect class="cls-2" x="1243" y="165" width="55.75" height="78"/><path class="cls-10" d="M1318.06,207.5h16.19V195.06a4.56,4.56,0,0,0-3.74-4.39,22.19,22.19,0,0,0-8.71,0s-3.74.74-3.74,4.39Z"/></g><g id="muraille"><path class="cls-21" d="M1107,674.33l66-64.66L1319,739l-62,62S1163.5,705.33,1107,674.33Z"/><polygon class="cls-22" points="1232.33 780.17 1232.33 803.67 1202.67 803.67 1202.67 780.17 1150.67 780.17 1150.67 803.67 1120 803.67 1120 780.17 1071.33 780.17 1071.33 803.67 1040.67 803.67 1040.67 780.17 989.67 780.17 989.67 803.67 960 803.67 960 780.17 907.33 780.17 907.33 803.67 879.33 803.67 879.33 780.17 827.33 780.17 827.33 803.67 798 803.67 798 780.17 746.33 780.17 746.33 803.67 716.67 803.67 716.67 780.17 665 780.17 665 803.67 637.33 803.67 637.33 780.17 591 780.17 591 803.67 559.67 803.67 559.67 780.17 515 780.17 515 998 1279 998 1279 780.17 1232.33 780.17"/><path class="cls-9" d="M1336.75,249.25l-5.25-9.92,24-30.5s22.83-5.66,43.5,30.84c0,0,9.67,20,17.33,21.83l-.08,12.17s-47.58,4.16-79.5-24.42"/><rect class="cls-23" x="963.67" y="936" width="45.67" height="20.67"/><rect class="cls-23" x="696" y="951" width="44" height="22.67"/><rect class="cls-23" x="1163.5" y="954.33" width="43.17" height="19.5"/><rect class="cls-24" x="515" y="825" width="746" height="32.67"/><path class="cls-2" d="M1148,540s31.25-7.75,74.5-69,121.58-165.69,161-161.5c0,0-31.25-27.25-46.75-60.25l23.5-25s36.75,51.33,56,49.42l.08,42.53S1261,595.67,1148,540"/><rect class="cls-25" x="515" y="857.67" width="764" height="53"/><path class="cls-9" d="M1148,540v94.16l131,69.41V648.93s-59.43-46.64-73.5-50.93c0,0,39.88-2.37,80.17-54.33,41-52.92,130-158,130-158s17-18.34,41.66-19,23,0,23,0l0-58s-62.69-15.67-117.36,47S1225,525,1225,525s-10.5,13.5-35,15Z"/><path class="cls-9" d="M1061,135.5v39.25l12.56-6.31s51.11,57.23,61.11,63.89,20.16,12,74.08,10.67l-20-20.75Z"/><path class="cls-2" d="M1243,204h-66.25s-16,.88-32-16.5c-17.75-19.27-36.5-43.75-36.5-43.75l-29.75-2L1122,193.5s23.25,29.75,66.75,28.75l20,20.75H1243Z"/><polygon class="cls-2" points="1061 110 1026.13 110 1026.64 191.82 1061 174.75 1061 110"/></g></svg>