<svg id="Calque_1" data-name="Calque 1" xmlns="http://www.w3.org/2000/svg" xmlns:xlink="http://www.w3.org/1999/xlink" viewBox="0 0 1920 1080"><defs><style>.cls-1{fill:url(#Ciel);}.cls-2{fill:#4599d5;}.cls-3{fill:#9183a4;}.cls-4{fill:#946539;}.cls-5{fill:#6e4b35;}.cls-6{fill:#b68a5b;}.cls-7{fill:#a07349;}.cls-8{fill:#d3b47b;}.cls-9{fill:#c0a173;}.cls-10{fill:#e0d3a6;}.cls-11{fill:#dccf98;}.cls-12{fill:#5b536a;}.cls-13{fill:#82798e;}.cls-14{fill:#4c3f51;}.cls-15{fill:#3e3623;}.cls-16{fill:#f2f0ca;}.cls-17{fill:#cdc390;}.cls-18{fill:#e0d4a4;}.cls-19{fill:#dac47b;}.cls-20{fill:#eddda2;}.cls-21{fill:#70643c;}.cls-22{fill:#efedbd;}.cls-23{fill:#d8cfae;}.cls-24{fill:#b6ab7d;}.cls-25{fill:#ede1b1;}.cls-26{fill:#ddcb8b;}.cls-27{fill:#f6f1b9;}.cls-28{fill:#efe9c7;}.cls-29{fill:#3c3626;}.cls-30{fill:#baa868;}.cls-31{fill:#c5b778;}.cls-32{fill:#d9cc97;}.cls-33{fill:#c6ba90;}.cls-34{fill:#606455;}.cls-35{fill:#a7a181;}.cls-36{fill:#f4f0cb;}.cls-37{fill:#adaa8b;}.cls-38{fill:#e4d9bb;}.cls-39{fill:#ebe7c1;}</style><linearGradient id="Ciel" y1="456" x2="1920" y2="456" gradientUnits="userSpaceOnUse"><stop offset="0" stop-color="#cce0f4"/><stop offset="0.06" stop-color="#c3dcf2"/><stop offset="0.17" stop-color="#a9d2ee"/><stop offset="0.31" stop-color="#80c2e7"/><stop offset="0.46" stop-color="#47acde"/><stop offset="0.57" stop-color="#1e9cd7"/><stop offset="0.87" stop-color="#0075be"/><stop offset="0.99" stop-color="#005b97"/></linearGradient></defs><title>paysageaustralie</title><rect class="cls-1" width="1920" height="912"/><rect class="cls-2" y="935" width="1920" height="145"/><rect class="cls-3" y="861" width="1920" height="74"/><rect class="cls-4" x="164" y="910" width="1756" height="50"/><rect class="cls-5" x="164" y="905" width="1756" height="7"/><polygon class="cls-6" points="1773 768 1687 830 1666 830 1606 868 1587 868 1527.5 905 1790 905 1790 768 1773 768"/><rect class="cls-7" x="1790" y="768" width="35" height="137"/><polygon class="cls-8" points="1774 720 1803 736 1803 768 1774 768 1774 720"/><polygon class="cls-9" points="1688 720 1688 830 1774 768 1774 720 1688 720"/><polygon class="cls-8" points="1688 719 1661 700 1597 700 1492 738 1406 738 1327 774 576 744 512 774 499 769 430 802 379 797 188 905 1528 905 1587 868 1606 868 1666 830 1688 830 1688 719"/><path class="cls-10" d="M466.59,784.5,332,595s166-4,271,62c0,0,91-50,165-39,0,0-19,5.15-102.48,129.58l-90-4.08-64,30-13-5Z"/><path class="cls-10" d="M812.32,753.44S768,597,667,418c0,0,249-38,401,148,0,0-141.73,160.61-146.37,191.81Z"/><path class="cls-11" d="M921.63,757.81,1277,772l-172.6-216.92S966,673.05,921.63,757.81Z"/><path class="cls-12" d="M1661,700s66-144,92-160v80s-44.5,7.5-59.5,33.5L1755,720l-67.5-.5Z"/><path class="cls-13" d="M1790,684l-37-64s-46.5,1.25-59.5,33.5Z"/><path class="cls-14" d="M1693.5,653.5,1755,720h19l29,16,15.5-22.75s10.25-13.54-5.37-19.87L1790,684Z"/><path class="cls-15" d="M768,618s-64,103-67.36,131l-35.12-1.4S742.67,628.33,768,618Z"/><path class="cls-16" d="M914.59,452.11S1048,501,1087,529.5L1063.84,561S993.59,477.07,914.59,452.11Z"/><path class="cls-17" d="M1087,529.5s14.25,9.5,22.75,20.5c0,0-141.5,133.49-188.12,207.81C921.63,757.81,938,712.5,1087,529.5Z"/><path class="cls-18" d="M1603.67,474.33,1642.33,700H1661s100.67-199,154.67-252.33C1815.67,447.67,1634.33,454.67,1603.67,474.33Z"/><path class="cls-19" d="M1603.67,474.33s-15.92,4.92-18.17,7.67l56.83,218Z"/><path class="cls-19" d="M1573.33,463,1584,476.33s-13.23,160-54.62,248.14L1511.47,731S1568.73,516.41,1573.33,463Z"/><path class="cls-20" d="M1409.5,377s-67.84,106.91-87.84,396.79l5.34.21Z"/><path class="cls-21" d="M667,418S804.3,661.88,812.32,753.44L779,752.11S737.67,588.33,667,418Z"/><path class="cls-22" d="M1584,476.33S1570,609.4,1551.47,663c0,0,63-11.23,76.28-19C1627.75,644.05,1587.22,480.36,1584,476.33Z"/><path class="cls-23" d="M1551.47,663s68.27-13.15,76.28-19l1.82,7s-31.37,12.81-80,18.63Z"/><path class="cls-18" d="M1573.33,463l-9.2-9.75L1486.75,738H1492l19.47-7S1555.17,590,1573.33,463Z"/><path class="cls-24" d="M1615.67,316.67l7-2.34S1560.33,437.67,1489,738h-3.75S1550.83,436.83,1615.67,316.67Z"/><path class="cls-25" d="M1448.5,384S1439,512,1477,738h8.25s67.58-304.67,130.42-421.33Z"/><path class="cls-26" d="M1448.5,384l-22.83,9s-6,101.33,38.66,345H1477S1445.33,524.33,1448.5,384Z"/><path class="cls-27" d="M1425.4,394.05s-59.67,233.31-78.73,301c0,0,93.4-16.26,106.37-22C1453,673.05,1423.13,477.38,1425.4,394.05Z"/><path class="cls-23" d="M1453,673.05l1.7,10.27s-75.12,19.45-111.07,21.35l3-9.65S1362.5,693.75,1453,673.05Z"/><path class="cls-28" d="M1104.42,555.08S1065,683.33,1064.33,709.33c0,0-62.47-2.78-92.73-16.39C971.6,692.94,1067.84,585.82,1104.42,555.08Z"/><path class="cls-29" d="M1364.63,702.39l-19.15,63.19L1406,738h58.33l-9.59-54.68S1373.11,701.25,1364.63,702.39Z"/><path class="cls-30" d="M1622.67,653.56l6.9-2.52,12.76,49h-10.66S1624.17,664,1622.67,653.56Z"/><path class="cls-29" d="M1549.54,669.67s-17.27,49.27-20.16,54.8L1597,700h34.67l-9-46.44Z"/><polygon class="cls-31" points="1345.13 703.99 1327 774 1345.48 765.58 1364.63 702.39 1345.13 703.99"/><path class="cls-32" d="M1425.67,393l-16.17-16s-82,356-82.5,397Z"/><path class="cls-33" d="M1409.5,377,1394,362.67s-48.54,166.66-46.44,207C1347.56,569.66,1369.67,447.67,1409.5,377Z"/><path class="cls-29" d="M1622.67,314.33,1581,472.53l-13.36-15.6S1612.75,320.25,1622.67,314.33Z"/><path class="cls-29" d="M1815.67,447.67s-57,92.66-62.67,107V540s-6.66,5.38-7.07,6.06S1784,478.5,1815.67,447.67Z"/><path class="cls-34" d="M1416.57,384c-2.64-2.61,37.24-192.33,38.17-197.67S1482.33,131,1482.33,131s-59.68,250-59,259.68Z"/><path class="cls-29" d="M1454.74,186.33S1394.5,336.08,1394,362.67L1416.57,384S1436,277.87,1454.74,186.33Z"/><path class="cls-35" d="M1482.33,131S1391,293.5,1360,453.25,1335,558,1314.48,773.5l7.18.29S1379.5,314.33,1482.33,131Z"/><path class="cls-36" d="M1314.48,773.5l-25.18-1S1138,597.83,1114.5,526.17c0,0,80.5-257.17,362.5-395.17C1477,131,1322.39,331.94,1314.48,773.5Z"/><path class="cls-37" d="M1477,131s1.17-1,5.33,0c0,0-141,231.67-166.36,626.81C1316,757.81,1295.75,390.68,1477,131Z"/><path class="cls-38" d="M1382.29,186.33S1090.08,331.11,1046,506.55c0,0,44.21,20.45,63.71,43.45l-5.33,5.08S1127,613.51,1277,772l12.28.49s-166.63-199.82-174.8-246.32C1114.5,526.17,1180.26,324.33,1382.29,186.33Z"/><path class="cls-39" d="M1104.42,555.08S1078.5,685,1080.5,713c0,0,104.62-18.51,117.81-28.12C1198.31,684.88,1120.84,589.65,1104.42,555.08Z"/><path class="cls-29" d="M1080.39,722.5s-4.93,33.49-3.91,41.49L1260,771.32l-68-73.82Z"/><path class="cls-29" d="M1062.33,720l-4.74,43.24-136-5.43s24.69-40,40.28-53.51l101.59,16.2"/></svg>