<svg xmlns="http://www.w3.org/2000/svg" xmlns:xlink="http://www.w3.org/1999/xlink" viewBox="0 0 1921.5 1080"><defs><style>.cls-1{fill:url(#Ciel);}.cls-2{fill:#7d8f9d;}.cls-3{fill:#4599d5;}.cls-4{fill:#9183a4;}.cls-5{fill:#946539;}.cls-6{fill:#6e4b35;}.cls-7{fill:#afa695;}.cls-8{fill:#c5beb3;}.cls-9{fill:#ccc4b9;}.cls-10{fill:#bab0a6;}.cls-11{fill:#c2baaf;}.cls-12{fill:#b5aba1;}.cls-13{fill:#665846;}.cls-14{fill:#d4ccc1;}.cls-15{fill:#867667;}.cls-16,.cls-38{fill:#62d7c5;}.cls-16{stroke:#62d7c5;}.cls-16,.cls-17,.cls-18,.cls-19,.cls-31,.cls-37,.cls-41{stroke-miterlimit:10;stroke-width:0.804px;}.cls-17{fill:#10a296;stroke:#10a296;}.cls-18{fill:#215352;stroke:#215352;}.cls-19{fill:#0c8880;stroke:#0c8880;}.cls-20{fill:#6ddeca;}.cls-21{fill:#6edfcb;}.cls-22{fill:#06aca1;}.cls-23{fill:#2c6a66;}.cls-24{fill:#47b2a0;}.cls-25{fill:#4cc3ad;}.cls-26{fill:#6edecb;}.cls-27{fill:#49c0aa;}.cls-28{fill:#6ddfca;}.cls-29{fill:#0daa9f;}.cls-30{fill:#21635f;}.cls-31{fill:#06aca2;stroke:#06aca2;}.cls-32{fill:#24aea6;}.cls-33{fill:#1b5952;}.cls-34{fill:#f87422;}.cls-35{fill:#227470;}.cls-36{fill:#099b92;}.cls-37{fill:#8ad7d3;stroke:#8ad7d3;}.cls-39{fill:#019b97;}.cls-40{fill:#029b97;}.cls-41{fill:#237470;stroke:#237470;}</style><linearGradient id="Ciel" x1="1.5" y1="456" x2="1921.5" y2="456" gradientUnits="userSpaceOnUse"><stop offset="0" stop-color="#cce0f4"/><stop offset="0.064" stop-color="#c3dcf2"/><stop offset="0.171" stop-color="#a9d2ee"/><stop offset="0.307" stop-color="#80c2e7"/><stop offset="0.465" stop-color="#47acde"/><stop offset="0.567" stop-color="#1e9cd7"/><stop offset="0.865" stop-color="#0075be"/><stop offset="0.994" stop-color="#005b97"/></linearGradient></defs><title>statue_liberte</title><g id="ciel-2" data-name="ciel"><rect class="cls-1" x="1.5" width="1920" height="912"/></g><g id="Calque_6" data-name="Calque 6"><polygon class="cls-2" points="1 635.5 30 635.5 30 617.5 55 617.5 55 567.5 87 567.5 87 577.5 94 577.5 94 605.5 151 606.5 151 682.5 168 682.5 168 697.5 224 697.5 224 632.5 288 632.5 288 516.5 395 516.5 395 394.5 513 394.5 513 435.5 539 434.5 539 487.5 564 488.5 564 464.5 631 464.5 631 613.5 669 613.5 669 764.5 759 764.5 759 508.5 774 508.5 774 498.5 787 498.5 787 395.5 803 395.5 803 579.5 860 579.5 860 455.5 873 455.5 873 394.5 919 395.5 919 642.5 1022 642.5 1022 504.5 1078 504.5 1078 579.5 1096 579.5 1096 540.5 1135 540.5 1135 511.5 1174 510.5 1174 451.5 1193 450.5 1193 367.5 1201 367.5 1201 450.5 1223 450.5 1223 588.5 1276 589.5 1333 635.5 1333 706.5 1397 706.5 1397 550.5 1410 550.5 1410 487.5 1464 488.5 1464 455.5 1508 455.5 1508 513.5 1549 512.5 1549 586.5 1668 586.5 1668 506.5 1796 505.5 1796 455.5 1843 455.5 1843 327.5 1921 327.5 1921 1079.5 0 1079.5 1 635.5"/></g><g id="ile"><rect class="cls-3" x="0.5" y="935" width="1920" height="145"/><rect class="cls-4" x="0.5" y="861" width="1920" height="74"/><rect class="cls-5" x="164.5" y="910" width="1756" height="50"/><rect class="cls-6" x="164.5" y="905" width="1756" height="7"/></g><g id="socle"><rect class="cls-7" x="849.5" y="863.948" width="357" height="44.223"/><rect class="cls-7" x="886.486" y="828.57" width="283.831" height="35.378"/><polygon class="cls-8" points="918.649 828.57 918.649 822.941 924.277 818.117 924.277 807.664 929.101 802.84 929.101 793.191 1127.703 793.191 1127.703 802.84 1133.331 807.664 1133.331 818.921 1137.351 823.745 1137.351 828.57 918.649 828.57"/><polygon class="cls-9" points="930.709 793.191 930.709 761.833 928.297 761.833 928.297 758.617 1127.703 758.617 1127.703 761.833 1125.291 761.833 1125.291 793.191 930.709 793.191"/><polygon class="cls-10" points="932.318 758.617 935.534 689.468 1121.27 689.468 1125.291 758.617 932.318 758.617"/><path class="cls-11" d="M927.6,689.468h197.8V662.935s-5.629-4.021-11.257,0v5.628h-26.534v-6.432a8.6,8.6,0,0,0-10.453,0v6.432h-27.337v-5.628a7.524,7.524,0,0,0-10.453,0v5.628h-26.534v-5.628a8.6,8.6,0,0,0-10.453,0v5.628H975.845v-5.628a8.6,8.6,0,0,0-10.453,0v5.628H938.858v-4.02s-4.824-4.825-11.257,0Z" transform="translate(1.5)"/><polygon class="cls-12" points="947.595 668.563 947.595 633.989 938.75 621.124 1117.25 621.124 1108.405 633.989 1108.405 668.563 947.595 668.563"/><polygon class="cls-13" points="1003.878 746.556 979.757 746.556 979.757 712.786 981.365 712.786 981.365 702.333 1002.27 702.333 1002.27 712.786 1003.878 712.786 1003.878 746.556"/><polygon class="cls-13" points="1040.061 746.556 1015.939 746.556 1015.939 712.786 1017.547 712.786 1017.547 702.333 1038.453 702.333 1038.453 712.786 1040.061 712.786 1040.061 746.556"/><polygon class="cls-13" points="1076.243 746.556 1052.122 746.556 1052.122 712.786 1053.73 712.786 1053.73 702.333 1074.635 702.333 1074.635 712.786 1076.243 712.786 1076.243 746.556"/><path class="cls-14" d="M1008.007,668.563V641.858a2.412,2.412,0,0,1,1.263-2.121l16.881-9.144a2.412,2.412,0,0,1,2.3,0l15.281,8.335a2.413,2.413,0,0,1,1.257,2.118v27.514Z" transform="translate(1.5)"/><rect class="cls-15" x="1018.351" y="642.029" width="19.297" height="26.534"/></g><g id="statue"><polygon class="cls-16" points="965.284 604.239 982.169 572.881 986.993 475.59 975.736 407.245 1068.203 272.968 1090.716 322.016 1096.345 483.631 1047.297 511.772 1062.574 523.029 999.858 566.448 984.581 604.239 965.284 604.239"/><polygon class="cls-17" points="984.581 604.239 1032.02 605.043 1036.845 540.718 999.858 566.448 984.581 604.239"/><polygon class="cls-18" points="1032.02 605.043 1036.845 540.718 1062.574 523.029 1063.378 605.847 1032.02 605.043"/><polygon class="cls-19" points="1063.378 605.847 1098.757 605.847 1098.757 549.563 1101.169 547.151 1101.169 514.989 1105.189 506.948 1105.189 490.063 1108.405 487.651 1104.385 458.705 1104.385 438.604 1101.973 417.698 1096.345 344.529 1108.405 326.84 1093.128 308.347 1085.892 282.617 1073.027 272.968 1068.203 272.968 1090.716 322.016 1096.345 483.631 1047.297 511.772 1062.574 523.029 1063.378 605.847"/><polygon class="cls-20" points="951.615 604.239 951.615 621.124 1105.189 621.124 1105.189 605.847 951.615 604.239"/><polygon class="cls-21" points="1096.345 344.529 1122.074 306.739 1149.412 326.036 1105.993 395.989 1100.365 391.968 1096.345 344.529"/><path class="cls-22" d="M1121.6,372.008a.591.591,0,0,0,.488.773c2.035.261,7.911.628,10.547-3.326,3.216-4.824,13.669-16.081,11.257-21.71-1.855-4.328-7.039-8.181-9.334-9.73a.8.8,0,0,0-1.209.932,25.072,25.072,0,0,0,2.5,4.778c2.694,4.31,2.5,6.454,2.079,7.4a.585.585,0,0,1-.944.175c-1.747-1.7-7.8-7.457-9.175-6.771a2.016,2.016,0,0,0-1,2,.588.588,0,0,1-.873.534c-1.012-.563-2.447-1.119-2.948-.119-.705,1.412,3.547,6.544,4.595,7.774a.587.587,0,0,1,.1.6l-3.488,8.916Z" transform="translate(1.5)"/><polygon class="cls-23" points="1100.365 391.968 1101.973 416.894 1107.601 412.07 1117.25 411.266 1126.095 363.022 1105.993 395.989 1100.365 391.968"/><polygon class="cls-24" points="986.993 378.3 986.993 391.164 1068.203 272.968 986.993 378.3"/><polygon class="cls-21" points="989.405 332.468 974.128 367.847 975.736 381.516 986.993 380.712 986.993 378.3 1068.203 272.968 1055.338 270.556 989.405 332.468"/><polygon class="cls-25" points="989.405 332.468 1021.568 252.063 1035.236 268.144 1055.338 270.556 989.405 332.468"/><path class="cls-26" d="M987.905,332.468l-19.3-28.946,45.027-60.3s4.02,0,6.433,8.845Z" transform="translate(1.5)"/><path class="cls-27" d="M1013.635,243.218l-37.79,50.656-3.217-23.318,32.163-36.986S1008.007,240,1013.635,243.218Z" transform="translate(1.5)"/><path class="cls-28" d="M972.628,270.556l-9.648-4.02-1.608-23.318,13.669-32.162,4.02,35.379,18.493-33.771s3.216,16.886,7.237,20.906Z" transform="translate(1.5)"/><path class="cls-29" d="M963.784,112.158s-8.845-10.453-7.237-12.061,7.237,2.412,7.237,2.412Z" transform="translate(1.5)"/><polygon class="cls-30" points="962.872 97.685 966.088 148.34 977.345 148.34 980.561 97.685 962.872 97.685"/><path class="cls-31" d="M979.061,245.631l-6.433-53.872L967.8,148.34h8.041L977.453,121s-7.237-5.628-5.629-10.452c0,0,3.217-2.413,8.845,5.628s3.216,26.534,3.216,26.534l13.669,69.952Z" transform="translate(1.5)"/><path class="cls-32" d="M962.98,112.158s7.236-.8,7.236,2.412c0,1.561-2.02,2.448-3.446,2.88a1.5,1.5,0,0,0-1.046,1.789c.231.848,1.111,1.008,2.243.736a8.889,8.889,0,0,1,4.849.16c4.776,1.577-.032,4.887-6.62,4.887,0,0,6.432,0,6.432,3.217,0,1.608-4.863,2.5-7.025,3a5.051,5.051,0,0,1-3.028-.193,3.3,3.3,0,0,1-2.007-2c-1.3-3.89-.8-16.081-.8-16.081S960.568,112.158,962.98,112.158Z" transform="translate(1.5)"/><path class="cls-26" d="M989.855,95.646c1.267-10.022-.437-11.989-1.377-13.365a1.582,1.582,0,0,0-1.312-.677H954.408a1.6,1.6,0,0,0-1.5,1.024c-1.007,2.626-3.242,9.717-.13,14.331a1.634,1.634,0,0,0,1.351.726h33.342A2.381,2.381,0,0,0,989.855,95.646Z" transform="translate(1.5)"/><rect class="cls-33" x="965.284" y="74.367" width="13.669" height="7.236"/><path class="cls-34" d="M981.987,49.912c-6.933,1.859-29.881,9.342-18.2,24.455h13.669s7.518-4.511,6.561-22.983A1.612,1.612,0,0,0,981.987,49.912Z" transform="translate(1.5)"/><polygon class="cls-35" points="1053.73 263.32 1073.027 268.144 1073.027 272.968 1068.203 272.968 1055.338 270.556 1053.73 263.32"/><path class="cls-36" d="M1025.7,245.631l-.8,12.06,8.844,10.453,20.1,2.412-4.02-24.121S1036.953,260.1,1025.7,245.631Z" transform="translate(1.5)"/><path class="cls-37" d="M1020.872,219.1s-2.413,32.966,16.081,32.966,18.493-20.9,18.493-32.162l-16.885-9.649Z" transform="translate(1.5)"/><path class="cls-38" d="M1016.047,220.705s1.608-16.885,21.71-16.885,22.513,16.885,22.513,16.885h-4.824v-.8l-16.885-9.649-17.689,8.845v1.608Z" transform="translate(1.5)"/><path class="cls-39" d="M1016.047,218.293l-4.824,23.317,2.412,1.608s4.02,0,6.433,8.845l2.412-.8V237.59s-2.412-10.453-1.608-16.885h-4.825Z" transform="translate(1.5)"/><path class="cls-40" d="M1052.23,243.218s4.824,21.71,5.628,21.71,9.649,2.412,9.649,2.412l-4.311-15.806a14.568,14.568,0,0,1-.514-3.835V235.33q0-2.564-.255-5.115l-.118-1.181a30.635,30.635,0,0,0-2.039-8.329h-4.824A62.03,62.03,0,0,1,1052.23,243.218Z" transform="translate(1.5)"/><path class="cls-41" d="M1016.047,219.9l-2.412-5.629-16.081-.8-.8-3.216h16.885v-4.824L995.142,199l-.8-2.412,23.317,4.021,3.217-2.413-16.081-20.1,20.9,14.473,8.845-.8,3.216-26.534,4.02,27.338h9.649l20.9-16.081-16.885,19.3,3.216,4.825,29.75-5.629-26.534,10.453.8,4.824,32.967,1.608-32.967,3.217-2.412,4.824s-3.216-16.081-22.513-16.081C1019.246,203.82,1016.047,219.9,1016.047,219.9Z" transform="translate(1.5)"/></g></svg>