<svg xmlns="http://www.w3.org/2000/svg" xmlns:xlink="http://www.w3.org/1999/xlink" viewBox="0 0 1920 1079"><defs><style>.cls-1{fill:url(#Dégradé_sans_nom_11);}.cls-2{fill:#c9ac32;}.cls-3,.cls-5{fill:#c7e5e4;}.cls-4,.cls-6{fill:#648991;}.cls-5{stroke:#c7e5e4;}.cls-11,.cls-16,.cls-20,.cls-21,.cls-5,.cls-6,.cls-7{stroke-miterlimit:10;}.cls-6,.cls-7{stroke:#648991;}.cls-7{fill:#749093;}.cls-8{fill:#d5b5a2;}.cls-9{fill:#997660;}.cls-10{fill:#8b796b;}.cls-11{fill:#c99d7f;stroke:#c99d7f;}.cls-11,.cls-21{stroke-width:1.422px;}.cls-12{fill:#c5aa98;}.cls-13{fill:#dfbca6;}.cls-14{fill:#97755c;}.cls-15{fill:#bba091;}.cls-16{fill:#dabaa5;stroke:#dabaa5;}.cls-17{fill:#ceaa97;}.cls-18,.cls-20{fill:#ae9484;}.cls-19{fill:#9f8978;}.cls-20{stroke:#ae9484;}.cls-21{stroke:#000;}</style><linearGradient id="Dégradé_sans_nom_11" y1="456" x2="1920" y2="456" gradientUnits="userSpaceOnUse"><stop offset="0" stop-color="#cce0f4"/><stop offset="0.079" stop-color="#c3dcf2"/><stop offset="0.21" stop-color="#a9d2ee"/><stop offset="0.377" stop-color="#80c2e7"/><stop offset="0.571" stop-color="#47acde"/><stop offset="0.697" stop-color="#1e9cd7"/><stop offset="0.908" stop-color="#0075be"/><stop offset="1" stop-color="#005b97"/></linearGradient></defs><title>mexique</title><g id="autre"><rect class="cls-1" width="1920" height="912"/><polyline class="cls-2" points="0 841 178.216 840.625 161.508 856.141 197.708 868.835 270.109 880.119 431.617 899.866 937.027 892.814 1063.727 892.814 1136.128 913.971 1169.543 913.971 1168.151 911.15 1382.567 905.508 1421.552 902.687 1409.021 882.94 1789.123 880.119 1768.238 832.162 1920 832.162 1920 1079 0 1079 0 841"/></g><g id="montagnes"><polygon class="cls-3" points="21.5 841.5 148.595 612.91 197.697 639.424 331 462 305.433 513.452 308.97 546.277 275 569 278 581 330 574 330.246 597.845 317.841 588.459 282 608 294 616 225.54 643.644 193.859 677.309 139 656 151 695 104 726 117 744 21.5 841.5"/><polygon class="cls-4" points="330.956 462.487 452.5 535.5 151.5 840.5 22 841 116.493 743.569 102.853 725.268 150.078 694.497 138.372 653.718 193.859 675.309 225.54 641.644 292.683 616.192 279.424 607.933 317.841 586.459 330.246 595.845 329.346 574.77 277.838 581.904 273.936 568.311 308.97 544.277 305.433 511.452 330.956 462.487"/><polygon class="cls-5" points="1462.5 613.5 1496.5 581.5 1663.992 691.553 1794.585 572.028 1794.585 609.656 1770.237 629.577 1789.051 629.577 1763.597 650.605 1856.561 609.656 1908.5 561.5 1884.5 620.5 1870.949 626.257 1872.055 649.498 1890.87 649.498 1904.15 637.324 1900.83 661.672 1898.617 688.233 1866.522 684.913 1824.466 646.178 1738.142 686.02 1675.5 747.5 1638.5 747.5 1592.5 684.5 1545.5 685.5 1510.5 624.5 1469.5 624.5 1462.5 613.5"/><polygon class="cls-4" points="1794.585 572.028 1856.561 609.656 1728 672 1775 635 1770.237 629.577 1794.585 609.656 1794.585 572.028"/><polygon class="cls-6" points="1919.5 551.5 1919.5 695.5 1725.968 802.225 1708.5 801.5 1679.5 754.5 1675.5 747.5 1738.142 686.02 1824.466 646.178 1866.522 684.913 1898.617 688.233 1904.15 637.324 1890.87 649.498 1872.055 649.498 1870.949 626.257 1885.5 620.5 1919.5 535.5 1919.5 551.5"/><polygon class="cls-7" points="1919.5 695.5 1919.5 831.5 1775.5 831.5 1762.5 802.5 1725.968 802.225 1919.5 695.5"/><polygon class="cls-5" points="1695.5 781.5 1738.142 760.17 1751.423 740.249 1752.53 771.237 1779.5 772.5 1725.968 802.225 1708.5 801.5 1695.5 781.5"/></g><g id="pyramide"><polygon class="cls-8" points="170.536 870.27 683.618 337.931 611.095 375.401 134.356 857.5 170.536 870.27"/><polygon class="cls-9" points="683.618 337.931 667.603 375.854 653.552 375.854 623.636 428.433 605.505 428.433 572.417 490.531 548.393 490.531 520.744 550.816 497.627 550.816 469.525 621.526 448.221 621.526 422.838 681.357 392.922 681.357 367.539 748.441 326.745 748.441 296.829 807.819 273.259 807.819 244.25 881.248 170.536 870.27 683.618 337.931"/><polygon class="cls-10" points="794.302 263.472 794.302 314.659 762.31 313.948 684.108 333.854 683.397 338.831 667.046 346.651 667.046 316.792 783.638 264.183 794.302 263.472"/><polygon class="cls-11" points="244.755 881.269 409.69 901.175 443.815 804.489 453.768 804.489 480.783 737.662 507.798 737.662 527.704 663.725 557.563 663.725 573.204 596.898 600.219 596.898 613.016 537.18 645.718 537.18 661.359 471.774 684.108 471.774 699.749 419.166 711.124 419.166 723.92 365.135 755.201 365.135 762.31 313.948 684.108 333.854 667.046 376.51 654.249 376.51 622.969 429.119 605.906 429.119 571.782 490.259 549.032 490.259 520.595 551.398 497.845 551.398 469.408 621.069 448.08 621.069 422.487 680.787 392.628 680.787 367.034 749.036 327.222 749.036 297.363 807.332 273.192 807.332 244.755 881.269"/><polygon class="cls-12" points="810.654 313.948 816.945 354.843 819.185 369.401 819.185 424.853 831.981 424.853 831.981 478.884 843.356 478.884 843.356 547.133 860.419 547.133 860.419 604.007 876.059 604.007 876.059 670.834 891.699 670.834 891.699 740.505 908.762 740.505 908.762 801.645 925.824 801.645 925.824 894.066 1055.213 894.066 1022.51 804.489 1009.713 804.489 988.386 740.505 977.011 741.927 951.417 672.256 944.308 670.834 924.402 604.007 915.871 604.007 898.809 545.711 891.699 545.711 873.215 478.884 867.528 478.884 850.466 424.853 846.2 424.853 827 371 810.654 313.948"/><polygon class="cls-13" points="762.31 313.948 810.654 313.948 819.185 369.401 819.185 424.853 831.981 424.853 831.981 478.884 843.356 478.884 843.356 547.133 860.419 547.133 860.419 604.007 876.059 604.007 876.059 670.834 891.699 670.834 891.699 740.505 908.762 740.505 908.762 801.645 925.824 801.645 925.824 894.066 409.69 901.175 443.815 804.489 453.768 804.489 480.783 737.662 507.798 737.662 527.704 663.725 557.563 663.725 573.204 596.898 600.219 596.898 613.016 537.18 645.718 537.18 661.359 471.774 684.108 471.774 699.749 419.166 711.124 419.166 723.92 365.135 755.201 365.135 762.31 313.948"/><polygon class="cls-14" points="810.654 313.948 1129.149 915.394 1055.213 894.066 1022.51 804.489 1009.713 804.489 988.386 740.505 977.011 741.927 951.417 672.256 944.308 670.834 924.402 604.007 915.871 604.007 898.809 545.711 891.699 545.711 873.215 478.884 867.528 478.884 850.466 424.853 846.2 424.853 826.294 369.401 810.654 313.948"/><polygon class="cls-15" points="810.654 313.948 843.356 313.948 1163.274 915.394 1129.149 915.394 810.654 313.948"/><polygon class="cls-16" points="847.622 321.479 1022.51 327.167 1380.818 905.862 1161.852 911.55 847.622 321.479"/><polygon class="cls-15" points="1022 327 1048.104 328.167 1420.63 904.019 1380.818 906.862 1022 327"/><polygon class="cls-13" points="1050.947 333.854 1129.149 333.854 1171.805 387.885 1200.242 387.885 1230.101 446.181 1284.132 446.181 1321.1 503.055 1363.756 503.055 1400.724 569.882 1437.692 569.882 1468.973 623.913 1510.207 623.913 1545.753 685.053 1592.675 685.053 1638.174 747.615 1675.142 747.615 1709.267 801.645 1761.875 801.645 1796 881.269 1407.833 884.113 1050.947 333.854"/><polygon class="cls-17" points="789.326 174.606 1062.322 197.356 1062.322 227.215 789.326 207.309 789.326 174.606"/><polygon class="cls-10" points="793.591 207.62 789.326 207.309 670.601 263.472 669.179 291.91 782.927 239.301 787.193 236.457 794.302 236.457 793.591 207.62"/><polygon class="cls-18" points="793.591 207.309 793.591 235.746 1055.213 259.918 1055.213 227.215 793.591 207.309"/><polygon class="cls-19" points="783.638 238.59 658.515 296.886 658.515 321.058 784.349 264.894 787.193 264.894 787.193 236.457 783.638 238.59"/><polygon class="cls-17" points="786.482 235.746 793.591 235.746 1055.213 259.918 1062.322 261.34 1062.322 285.511 793.591 264.183 786.482 264.183 786.482 235.746"/><polygon class="cls-20" points="793.591 264.183 793.591 313.948 843.356 313.948 847.622 322.479 1048.104 328.167 1050.947 333.854 1055.213 333.854 1055.213 285.511 793.591 264.183"/><polygon class="cls-19" points="657.093 244.277 789.326 174.606 789.326 207.309 657.093 269.871 657.093 244.277"/><polygon class="cls-21" points="895.965 323.901 895.965 284.089 931.5 286.5 931.5 325.5 895.965 323.901"/><polygon class="cls-21" points="726.764 322.479 726.764 305.417 742.404 301.152 742.404 318.214 726.764 322.479"/></g></svg>