<svg id="Calque_1" data-name="Calque 1" xmlns="http://www.w3.org/2000/svg" xmlns:xlink="http://www.w3.org/1999/xlink" viewBox="0 0 1920 1080"><defs><style>.cls-1{fill:url(#Dégradé_sans_nom_38);}.cls-2{fill:url(#Dégradé_sans_nom_60);}.cls-3{fill:url(#Dégradé_sans_nom_13);}.cls-4{fill:#d1d1d1;}.cls-5{fill:url(#Dégradé_sans_nom_9);}.cls-6{fill:url(#Dégradé_sans_nom_9-2);}.cls-7{fill:none;stroke:#fff;stroke-miterlimit:10;stroke-width:4px;}.cls-8{fill:url(#Dégradé_sans_nom_60-2);}.cls-9{fill:url(#Dégradé_sans_nom_52);}.cls-10{fill:url(#Dégradé_sans_nom_52-2);}.cls-11{fill:url(#Dégradé_sans_nom_70);}.cls-12{fill:url(#Dégradé_sans_nom_70-2);}.cls-13{fill:url(#Dégradé_sans_nom_70-3);}</style><linearGradient id="Dégradé_sans_nom_38" x1="960" y1="663.25" x2="960" gradientUnits="userSpaceOnUse"><stop offset="0" stop-color="#675a90"/><stop offset="0.18" stop-color="#63578e"/><stop offset="0.37" stop-color="#565088"/><stop offset="0.55" stop-color="#42427d"/><stop offset="0.58" stop-color="#3e407b"/><stop offset="0.82" stop-color="#2e3672"/><stop offset="1" stop-color="#28326f"/></linearGradient><linearGradient id="Dégradé_sans_nom_60" x1="534.67" y1="508.54" x2="859.14" y2="508.54" gradientUnits="userSpaceOnUse"><stop offset="0" stop-color="#675a90"/><stop offset="0" stop-color="#5d528b"/><stop offset="0" stop-color="#564d88"/><stop offset="0" stop-color="#544c87"/><stop offset="0.29" stop-color="#43427e"/><stop offset="0.71" stop-color="#2f3674"/><stop offset="1" stop-color="#283270"/></linearGradient><linearGradient id="Dégradé_sans_nom_13" y1="871.63" x2="1920" y2="871.63" gradientUnits="userSpaceOnUse"><stop offset="0" stop-color="#fff"/><stop offset="0.38" stop-color="#eae9e9"/><stop offset="1" stop-color="#bfbebe"/></linearGradient><linearGradient id="Dégradé_sans_nom_9" x1="623.79" y1="671.99" x2="1493.45" y2="671.99" gradientUnits="userSpaceOnUse"><stop offset="0" stop-color="#fff"/><stop offset="0.18" stop-color="#f1fcff"/><stop offset="0.52" stop-color="#dcf8ff"/><stop offset="0.75" stop-color="#d4f7ff"/></linearGradient><linearGradient id="Dégradé_sans_nom_9-2" x1="880.91" y1="740.85" x2="1138.17" y2="998.1" xlink:href="#Dégradé_sans_nom_9"/><linearGradient id="Dégradé_sans_nom_60-2" x1="464.67" y1="663.25" x2="464.67" y2="482.67" xlink:href="#Dégradé_sans_nom_60"/><linearGradient id="Dégradé_sans_nom_52" x1="416.33" y1="663.33" x2="416.33" y2="482.67" gradientUnits="userSpaceOnUse"><stop offset="0" stop-color="#675a90"/><stop offset="0" stop-color="#3e407b"/><stop offset="0.27" stop-color="#5b568e"/><stop offset="0.86" stop-color="#a48dbf"/><stop offset="1" stop-color="#b79bcc"/></linearGradient><linearGradient id="Dégradé_sans_nom_52-2" x1="651.97" y1="610.67" x2="651.97" y2="354.41" xlink:href="#Dégradé_sans_nom_52"/><linearGradient id="Dégradé_sans_nom_70" x1="505.55" y1="399.74" x2="371.86" y2="-99.21" gradientUnits="userSpaceOnUse"><stop offset="0" stop-color="#318293"/><stop offset="0.06" stop-color="#2f718b"/><stop offset="0.15" stop-color="#2c5a81"/><stop offset="0.27" stop-color="#2a4879"/><stop offset="0.4" stop-color="#293b73"/><stop offset="0.59" stop-color="#283470"/><stop offset="1" stop-color="#28326f"/></linearGradient><linearGradient id="Dégradé_sans_nom_70-2" x1="355.94" y1="249.99" x2="159.04" y2="-91.05" xlink:href="#Dégradé_sans_nom_70"/><linearGradient id="Dégradé_sans_nom_70-3" x1="201.22" y1="163.35" x2="80.51" y2="-45.72" xlink:href="#Dégradé_sans_nom_70"/></defs><title>paysageartique</title><rect class="cls-1" width="1920" height="663.25"/><path class="cls-2" d="M534.67,662.67S705,362.16,740.83,354.41s118.31,54,118.31,54L646.8,663.33Z"/><rect class="cls-3" y="663.25" width="1920" height="416.75"/><path class="cls-4" d="M931.41,866.07s62.18-110.61,147.67-105.55c0,0,12.54-42.94-63.47-56.44S911.22,809.07,931.41,866.07Z"/><path class="cls-5" d="M626.11,882.57s-60-499.47,430.48-516,435,531,435,531-199.49,82.5-352.48,78c0,0,27.37-292.6-94.49-294-132-1.5-162-13.14-157.5,294.17C887.09,975.75,743.1,999.57,626.11,882.57Z"/><path class="cls-6" d="M886.67,952.67l2.42,51.4h55.5s-52.6-287.57,52-289.49,92.74,55.42,90,289.49l50.05-4.44,2.45-24.06S1182,672,1027.33,672C880,672,888.78,734.58,886.67,952.67Z"/><path class="cls-7" d="M1172.08,862s186,2.81,285-60.42"/><path class="cls-7" d="M1471.36,669.64c-113.29,86.33-336.69,85-336.69,85"/><path class="cls-7" d="M886.67,742s-231.74-39-236-83.36"/><path class="cls-7" d="M627.6,762S778,850.67,872,851.33"/><path class="cls-7" d="M716,562.67s248,145.33,670,14"/><path class="cls-7" d="M788.67,474s238,114.67,550,5.33"/><path class="cls-7" d="M880.67,412.67s152,68,350.66,6"/><path class="cls-7" d="M1029.67,375.67s-28.85,31.56-31.43,65.44"/><path class="cls-7" d="M1078.33,375.67S1105,400.49,1107,442.91"/><path class="cls-7" d="M932.9,429.39S897.65,457.05,895.33,508"/><path class="cls-7" d="M1174.2,433.37s35,25,32.74,80.64"/><path class="cls-7" d="M812.67,494.67s-34.34,15.33-40.34,82"/><path class="cls-7" d="M950.67,524.67s-22.13,8.66-25.56,90.33"/><path class="cls-7" d="M1142.33,529.67s21.34,17.66,22.34,86.66"/><path class="cls-7" d="M1284,504s29,30.67,33,82.67"/><path class="cls-7" d="M1254.67,624s37.33,38.67,36,110.67"/><path class="cls-7" d="M820,619s-18.5,19.5-27.5,88.5"/><path class="cls-7" d="M701.5,707.5s-20,28.5-23,70"/><path class="cls-7" d="M1406.5,724s23.5,49,23.5,82.5"/><path class="cls-7" d="M1223,765.25s18,56.42,16,86.08"/><path class="cls-7" d="M763,838s-23,58-20,107"/><path class="cls-7" d="M1322,862s19.33,44.27,16.67,85.62"/><path class="cls-8" d="M575.33,610.67s-43.33-125.34-96.66-128L354,663.25l213.33-.13Z"/><path class="cls-9" d="M354,663.25S445.33,492,478.67,482.67l-25.34,53-3.33-11S418,571.33,416.33,594L410,582s-45.33,71.33-45.33,81.33Z"/><path class="cls-10" d="M563.1,579.23S690,372,740.83,354.41L701.5,462.67l-11.5-34S629.27,521.33,627.6,544l-4.81-14.33s-47.22,72.43-47.46,81Z"/><path class="cls-11" d="M1.1,482.67S127,374,150,456s207-47,277-132,132.2-30,136.1-10S637,425,780,223,925.11,0,925.11,0L1.1.13Z"/><path class="cls-12" d="M1.1,375.67S102,285,132,339s158-48,235-183c0,0,46.33-72,97.67-9S639,0,639,0L1.1.13Z"/><path class="cls-13" d="M1.1,229S125,85,161,141,283,121.26,345,.13H1.1Z"/></svg>