<svg xmlns="http://www.w3.org/2000/svg" xmlns:xlink="http://www.w3.org/1999/xlink" viewBox="0 0 1955.04 1080.5"><defs><style>.cls-1{fill:url(#Ciel);}.cls-2{fill:#1bbc0a;}.cls-3{fill:#8b8c8b;}.cls-4{fill:#a9aaa9;}.cls-5{fill:#9b9b9b;}.cls-6{fill:#b1b5b1;}.cls-7{fill:#6b6b6b;}</style><linearGradient id="Ciel" x1="43.15" y1="984.24" x2="1877.35" y2="-74.74" gradientUnits="userSpaceOnUse"><stop offset="0" stop-color="#cce0f4"/><stop offset="0.06" stop-color="#c3dcf2"/><stop offset="0.17" stop-color="#a9d2ee"/><stop offset="0.31" stop-color="#80c2e7"/><stop offset="0.46" stop-color="#47acde"/><stop offset="0.57" stop-color="#1e9cd7"/><stop offset="0.87" stop-color="#0075be"/><stop offset="0.99" stop-color="#005b97"/></linearGradient></defs><title>paysagefrance</title><g id="image"><rect class="cls-1" width="1920.5" height="909.5"/></g><g id="sol"><rect class="cls-2" x="0.5" y="909.5" width="1920" height="171"/></g><g id="tour_eiffeil_déco" data-name="tour eiffeil déco"><path class="cls-3" d="M895,909.5s48.29-318.5,142.64-267c0,0-54.64-88.17-102,6.5S859,909.5,859,909.5Z"/><path class="cls-3" d="M1339.12,909.5s-48.28-318.5-142.64-267c0,0,54.64-88.17,102,6.5s76.66,260.5,76.66,260.5Z"/><path class="cls-4" d="M1053.14,0,700.58,909.5h180s35.07-354,157.07-267c0,0,10.85,230-31.07,267h110L1117,0ZM1055,468H942.33L998,326.33h57Z"/><path class="cls-5" d="M1181,0h-63.86l.42,909.5h110c-41.93-37-31.08-267-31.08-267,122-87,157.07,267,157.07,267h180Zm-16.33,468V326.33h57L1277.33,468Z"/><polygon class="cls-5" points="1117 0 1116.58 909.5 1117.56 909.5 1117.14 0 1117 0"/><polygon class="cls-3" points="837 492 849.31 525 1117 525 1117 492 837 492"/><polygon class="cls-3" points="1397 492 1384.69 525 1117 525 1117 492 1397 492"/><rect class="cls-6" x="837" y="468" width="561" height="24"/><polygon class="cls-3" points="1254 154 1247.98 173 1117 173 1117 154 1254 154"/><polygon class="cls-3" points="980 154 986.02 173 1117 173 1117 154 980 154"/><rect class="cls-6" x="980" y="132" width="274" height="22"/><polygon class="cls-3" points="1013.67 326.33 963.67 468 942.33 468 998 326.33 1013.67 326.33"/><polygon class="cls-3" points="1206 326.33 1256 468 1277.33 468 1221.67 326.33 1206 326.33"/><polygon class="cls-3" points="864.75 886.87 864.75 865.87 839.75 886.87 864.75 886.87"/><polygon class="cls-3" points="1130.5 540 1130.5 561 1155.5 540 1130.5 540"/><polygon class="cls-3" points="1063.7 84.5 1063.7 105.5 1088.7 84.5 1063.7 84.5"/><polygon class="cls-3" points="1101.2 116 1101.2 95 1076.2 116 1101.2 116"/><path class="cls-7" d="M1954.94,389c0-1.52,0-3,.1-4.49C1954.94,386,1954.94,387.51,1954.94,389Z"/></g></svg>